<?xml version="1.0" encoding="UTF-8" standalone="no"?>
<!DOCTYPE svg PUBLIC "-//W3C//DTD SVG 1.1//EN"
 "http://www.w3.org/Graphics/SVG/1.1/DTD/svg11.dtd">
<!-- Generated by graphviz version 9.0.0 (20230911.1827)
 -->
<!-- Title: iop/system Pages: 1 -->
<svg width="1390pt" height="197pt"
 viewBox="0.00 0.00 1389.75 197.00" xmlns="http://www.w3.org/2000/svg" xmlns:xlink="http://www.w3.org/1999/xlink">
<g id="graph0" class="graph" transform="scale(1 1) rotate(0) translate(4 193)">
<title>iop/system</title>
<g id="clust1" class="cluster">
<title>clusterdir_0981ace215aa2029f526b70c145b9fbe</title>
<g id="a_clust1"><a xlink:href="dir_0981ace215aa2029f526b70c145b9fbe.html" target="_top" xlink:title="iop">
<polygon fill="#deebf9" stroke="#404040" stroke-dasharray="5,2" points="8,-8 8,-181 1320,-181 1320,-8 8,-8"/>
<text text-anchor="middle" x="664" y="-167.5" font-family="Helvetica,sans-Serif" font-size="10.00">iop</text>
</a>
</g>
</g>
<g id="clust2" class="cluster">
<title>clusterdir_40ac35421bc63b72c26b6c69b1517fd6</title>
<g id="a_clust2"><a xlink:href="dir_40ac35421bc63b72c26b6c69b1517fd6.html" target="_top">
<polygon fill="#deebf9" stroke="#404040" stroke-width="2" points="16,-63.25 16,-153.75 1312,-153.75 1312,-63.25 16,-63.25"/>
</a>
</g>
</g>
<!-- dir_9be0baa3d4a3e9f480a9ee70594037fa -->
<g id="node1" class="node">
<title>dir_9be0baa3d4a3e9f480a9ee70594037fa</title>
<g id="a_node1"><a xlink:href="dir_9be0baa3d4a3e9f480a9ee70594037fa.html" target="_top" xlink:title="kernel">
<polygon fill="#60a2e3" stroke="red" points="527.12,-35.25 484.88,-35.25 484.88,-16 527.12,-16 527.12,-35.25"/>
<text text-anchor="middle" x="506" y="-21.75" font-family="Helvetica,sans-Serif" font-size="10.00">kernel</text>
</a>
</g>
</g>
<!-- dir_40ac35421bc63b72c26b6c69b1517fd6 -->
<g id="node2" class="node">
<title>dir_40ac35421bc63b72c26b6c69b1517fd6</title>
<text text-anchor="middle" x="1280" y="-132.25" font-family="Helvetica,sans-Serif" font-size="10.00">system</text>
</g>
<!-- dir_249e27ed47f6a2eab7da7b1ddc4f92fd -->
<g id="node3" class="node">
<title>dir_249e27ed47f6a2eab7da7b1ddc4f92fd</title>
<g id="a_node3"><a xlink:href="dir_249e27ed47f6a2eab7da7b1ddc4f92fd.html" target="_top" xlink:title="alloc">
<polygon fill="#60a2e3" stroke="#404040" points="423.12,-145.75 386.88,-145.75 386.88,-126.5 423.12,-126.5 423.12,-145.75"/>
<text text-anchor="middle" x="405" y="-132.25" font-family="Helvetica,sans-Serif" font-size="10.00">alloc</text>
</a>
</g>
</g>
<!-- dir_249e27ed47f6a2eab7da7b1ddc4f92fd&#45;&gt;dir_9be0baa3d4a3e9f480a9ee70594037fa -->
<g id="edge1" class="edge">
<title>dir_249e27ed47f6a2eab7da7b1ddc4f92fd&#45;&gt;dir_9be0baa3d4a3e9f480a9ee70594037fa</title>
<g id="a_edge1"><a xlink:href="dir_000005_000171.html" target="_top">
<path fill="none" stroke="#63b8ff" d="M413.27,-126.25C429.99,-108.28 468.08,-67.36 489.89,-43.94"/>
<polygon fill="#63b8ff" stroke="#63b8ff" points="492.34,-46.44 496.59,-36.73 487.21,-41.67 492.34,-46.44"/>
</a>
</g>
<g id="a_edge1&#45;headlabel"><a xlink:href="dir_000005_000171.html" target="_top" xlink:title="7">
<text text-anchor="middle" x="493" y="-46.02" font-family="Helvetica,sans-Serif" font-size="10.00" fill="#63b8ff">7</text>
</a>
</g>
</g>
<!-- dir_d7026c86e7f8fc62fc6c0ebacfebf381 -->
<g id="node4" class="node">
<title>dir_d7026c86e7f8fc62fc6c0ebacfebf381</title>
<g id="a_node4"><a xlink:href="dir_d7026c86e7f8fc62fc6c0ebacfebf381.html" target="_top" xlink:title="dmacman">
<polygon fill="#60a2e3" stroke="#404040" points="500.38,-145.75 441.62,-145.75 441.62,-126.5 500.38,-126.5 500.38,-145.75"/>
<text text-anchor="middle" x="471" y="-132.25" font-family="Helvetica,sans-Serif" font-size="10.00">dmacman</text>
</a>
</g>
</g>
<!-- dir_d7026c86e7f8fc62fc6c0ebacfebf381&#45;&gt;dir_9be0baa3d4a3e9f480a9ee70594037fa -->
<g id="edge2" class="edge">
<title>dir_d7026c86e7f8fc62fc6c0ebacfebf381&#45;&gt;dir_9be0baa3d4a3e9f480a9ee70594037fa</title>
<g id="a_edge2"><a xlink:href="dir_000030_000171.html" target="_top">
<path fill="none" stroke="#63b8ff" d="M473.86,-126.25C479.45,-108.92 491.93,-70.23 499.59,-46.49"/>
<polygon fill="#63b8ff" stroke="#63b8ff" points="502.89,-47.66 502.63,-37.07 496.23,-45.51 502.89,-47.66"/>
</a>
</g>
<g id="a_edge2&#45;headlabel"><a xlink:href="dir_000030_000171.html" target="_top" xlink:title="5">
<text text-anchor="middle" x="504.96" y="-46.64" font-family="Helvetica,sans-Serif" font-size="10.00" fill="#63b8ff">5</text>
</a>
</g>
</g>
<!-- dir_d26cb44661e10025c70afdeb6a3fa91f -->
<g id="node5" class="node">
<title>dir_d26cb44661e10025c70afdeb6a3fa91f</title>
<g id="a_node5"><a xlink:href="dir_d26cb44661e10025c70afdeb6a3fa91f.html" target="_top" xlink:title="eesync">
<polygon fill="#60a2e3" stroke="#404040" points="565.38,-145.75 518.62,-145.75 518.62,-126.5 565.38,-126.5 565.38,-145.75"/>
<text text-anchor="middle" x="542" y="-132.25" font-family="Helvetica,sans-Serif" font-size="10.00">eesync</text>
</a>
</g>
</g>
<!-- dir_d26cb44661e10025c70afdeb6a3fa91f&#45;&gt;dir_9be0baa3d4a3e9f480a9ee70594037fa -->
<g id="edge3" class="edge">
<title>dir_d26cb44661e10025c70afdeb6a3fa91f&#45;&gt;dir_9be0baa3d4a3e9f480a9ee70594037fa</title>
<g id="a_edge3"><a xlink:href="dir_000041_000171.html" target="_top">
<path fill="none" stroke="#63b8ff" d="M539.05,-126.25C533.31,-108.92 520.47,-70.23 512.59,-46.49"/>
<polygon fill="#63b8ff" stroke="#63b8ff" points="515.93,-45.45 509.46,-37.06 509.29,-47.66 515.93,-45.45"/>
</a>
</g>
<g id="a_edge3&#45;headlabel"><a xlink:href="dir_000041_000171.html" target="_top" xlink:title="12">
<text text-anchor="middle" x="519.28" y="-42.66" font-family="Helvetica,sans-Serif" font-size="10.00" fill="#63b8ff">12</text>
</a>
</g>
</g>
<!-- dir_d204d0cf134f4cdf6ccf23f48ed9ae60 -->
<g id="node6" class="node">
<title>dir_d204d0cf134f4cdf6ccf23f48ed9ae60</title>
<g id="a_node6"><a xlink:href="dir_d204d0cf134f4cdf6ccf23f48ed9ae60.html" target="_top" xlink:title="ioman">
<polygon fill="#60a2e3" stroke="#404040" points="896.12,-145.75 853.88,-145.75 853.88,-126.5 896.12,-126.5 896.12,-145.75"/>
<text text-anchor="middle" x="875" y="-132.25" font-family="Helvetica,sans-Serif" font-size="10.00">ioman</text>
</a>
</g>
</g>
<!-- dir_d204d0cf134f4cdf6ccf23f48ed9ae60&#45;&gt;dir_9be0baa3d4a3e9f480a9ee70594037fa -->
<g id="edge4" class="edge">
<title>dir_d204d0cf134f4cdf6ccf23f48ed9ae60&#45;&gt;dir_9be0baa3d4a3e9f480a9ee70594037fa</title>
<g id="a_edge4"><a xlink:href="dir_000162_000171.html" target="_top">
<path fill="none" stroke="#63b8ff" d="M853.44,-127.09C815.23,-113.02 732.93,-83.49 662,-63.25 619.9,-51.23 570.6,-40.15 538.86,-33.39"/>
<polygon fill="#63b8ff" stroke="#63b8ff" points="539.6,-29.97 529.1,-31.33 538.16,-36.82 539.6,-29.97"/>
</a>
</g>
<g id="a_edge4&#45;headlabel"><a xlink:href="dir_000162_000171.html" target="_top" xlink:title="8">
<text text-anchor="middle" x="542.22" y="-23.75" font-family="Helvetica,sans-Serif" font-size="10.00" fill="#63b8ff">8</text>
</a>
</g>
</g>
<!-- dir_bdd9a5d540de89e9fe90efdfc6973a4f -->
<g id="node25" class="node">
<title>dir_bdd9a5d540de89e9fe90efdfc6973a4f</title>
<g id="a_node25"><a xlink:href="dir_bdd9a5d540de89e9fe90efdfc6973a4f.html" target="_top" xlink:title="common">
<polygon fill="#deebf9" stroke="red" points="1381.75,-90.5 1328.25,-90.5 1328.25,-71.25 1381.75,-71.25 1381.75,-90.5"/>
<text text-anchor="middle" x="1355" y="-77" font-family="Helvetica,sans-Serif" font-size="10.00">common</text>
</a>
</g>
</g>
<!-- dir_d204d0cf134f4cdf6ccf23f48ed9ae60&#45;&gt;dir_bdd9a5d540de89e9fe90efdfc6973a4f -->
<g id="edge5" class="edge">
<title>dir_d204d0cf134f4cdf6ccf23f48ed9ae60&#45;&gt;dir_bdd9a5d540de89e9fe90efdfc6973a4f</title>
<g id="a_edge5"><a xlink:href="dir_000162_000022.html" target="_top">
<path fill="none" stroke="#63b8ff" d="M896.56,-128.58C899.71,-127.79 902.92,-127.06 906,-126.5 1085.99,-93.85 1135.2,-118.31 1316,-90.5 1316.24,-90.46 1316.48,-90.43 1316.72,-90.39"/>
<polygon fill="#63b8ff" stroke="#63b8ff" points="1317.11,-93.87 1326.32,-88.63 1315.85,-86.99 1317.11,-93.87"/>
</a>
</g>
<g id="a_edge5&#45;headlabel"><a xlink:href="dir_000162_000022.html" target="_top" xlink:title="1">
<text text-anchor="middle" x="1315.58" y="-93.17" font-family="Helvetica,sans-Serif" font-size="10.00" fill="#63b8ff">1</text>
</a>
</g>
</g>
<!-- dir_f82a163f83eb0dcdf294ef3743365a67 -->
<g id="node7" class="node">
<title>dir_f82a163f83eb0dcdf294ef3743365a67</title>
<g id="a_node7"><a xlink:href="dir_f82a163f83eb0dcdf294ef3743365a67.html" target="_top" xlink:title="iomanx">
<polygon fill="#60a2e3" stroke="#404040" points="961.38,-145.75 914.62,-145.75 914.62,-126.5 961.38,-126.5 961.38,-145.75"/>
<text text-anchor="middle" x="938" y="-132.25" font-family="Helvetica,sans-Serif" font-size="10.00">iomanx</text>
</a>
</g>
</g>
<!-- dir_f82a163f83eb0dcdf294ef3743365a67&#45;&gt;dir_9be0baa3d4a3e9f480a9ee70594037fa -->
<g id="edge6" class="edge">
<title>dir_f82a163f83eb0dcdf294ef3743365a67&#45;&gt;dir_9be0baa3d4a3e9f480a9ee70594037fa</title>
<g id="a_edge6"><a xlink:href="dir_000163_000171.html" target="_top">
<path fill="none" stroke="#63b8ff" d="M914.43,-126.7C873.08,-112.15 784.58,-82.08 708,-63.25 648.91,-48.72 578.78,-37.28 538.63,-31.27"/>
<polygon fill="#63b8ff" stroke="#63b8ff" points="539.31,-27.83 528.91,-29.84 538.29,-34.76 539.31,-27.83"/>
</a>
</g>
<g id="a_edge6&#45;headlabel"><a xlink:href="dir_000163_000171.html" target="_top" xlink:title="7">
<text text-anchor="middle" x="541.79" y="-21.45" font-family="Helvetica,sans-Serif" font-size="10.00" fill="#63b8ff">7</text>
</a>
</g>
</g>
<!-- dir_f82a163f83eb0dcdf294ef3743365a67&#45;&gt;dir_bdd9a5d540de89e9fe90efdfc6973a4f -->
<g id="edge7" class="edge">
<title>dir_f82a163f83eb0dcdf294ef3743365a67&#45;&gt;dir_bdd9a5d540de89e9fe90efdfc6973a4f</title>
<g id="a_edge7"><a xlink:href="dir_000163_000022.html" target="_top">
<path fill="none" stroke="#63b8ff" d="M961.67,-128.29C964.46,-127.62 967.28,-127 970,-126.5 1122.01,-98.29 1163.38,-115.23 1316,-90.5 1316.24,-90.46 1316.48,-90.42 1316.72,-90.38"/>
<polygon fill="#63b8ff" stroke="#63b8ff" points="1317.13,-93.87 1326.31,-88.58 1315.84,-86.99 1317.13,-93.87"/>
</a>
</g>
<g id="a_edge7&#45;headlabel"><a xlink:href="dir_000163_000022.html" target="_top" xlink:title="1">
<text text-anchor="middle" x="1315.61" y="-93.17" font-family="Helvetica,sans-Serif" font-size="10.00" fill="#63b8ff">1</text>
</a>
</g>
</g>
<!-- dir_024ed9b5cab300e9b0cec9fa63c26df3 -->
<g id="node8" class="node">
<title>dir_024ed9b5cab300e9b0cec9fa63c26df3</title>
<g id="a_node8"><a xlink:href="dir_024ed9b5cab300e9b0cec9fa63c26df3.html" target="_top" xlink:title="iopmgr">
<polygon fill="#60a2e3" stroke="#404040" points="628.62,-145.75 583.38,-145.75 583.38,-126.5 628.62,-126.5 628.62,-145.75"/>
<text text-anchor="middle" x="606" y="-132.25" font-family="Helvetica,sans-Serif" font-size="10.00">iopmgr</text>
</a>
</g>
</g>
<!-- dir_024ed9b5cab300e9b0cec9fa63c26df3&#45;&gt;dir_9be0baa3d4a3e9f480a9ee70594037fa -->
<g id="edge8" class="edge">
<title>dir_024ed9b5cab300e9b0cec9fa63c26df3&#45;&gt;dir_9be0baa3d4a3e9f480a9ee70594037fa</title>
<g id="a_edge8"><a xlink:href="dir_000167_000171.html" target="_top">
<path fill="none" stroke="#63b8ff" d="M597.82,-126.25C581.26,-108.28 543.54,-67.36 521.95,-43.94"/>
<polygon fill="#63b8ff" stroke="#63b8ff" points="524.67,-41.72 515.32,-36.74 519.53,-46.46 524.67,-41.72"/>
</a>
</g>
<g id="a_edge8&#45;headlabel"><a xlink:href="dir_000167_000171.html" target="_top" xlink:title="31">
<text text-anchor="middle" x="528.17" y="-37.45" font-family="Helvetica,sans-Serif" font-size="10.00" fill="#63b8ff">31</text>
</a>
</g>
</g>
<!-- dir_c70e074c247f0fc7ba2b5b627ea24568 -->
<g id="node9" class="node">
<title>dir_c70e074c247f0fc7ba2b5b627ea24568</title>
<g id="a_node9"><a xlink:href="dir_c70e074c247f0fc7ba2b5b627ea24568.html" target="_top" xlink:title="loadfile">
<polygon fill="#60a2e3" stroke="#404040" points="1025,-145.75 979,-145.75 979,-126.5 1025,-126.5 1025,-145.75"/>
<text text-anchor="middle" x="1002" y="-132.25" font-family="Helvetica,sans-Serif" font-size="10.00">loadfile</text>
</a>
</g>
</g>
<!-- dir_c70e074c247f0fc7ba2b5b627ea24568&#45;&gt;dir_9be0baa3d4a3e9f480a9ee70594037fa -->
<g id="edge9" class="edge">
<title>dir_c70e074c247f0fc7ba2b5b627ea24568&#45;&gt;dir_9be0baa3d4a3e9f480a9ee70594037fa</title>
<g id="a_edge9"><a xlink:href="dir_000184_000171.html" target="_top">
<path fill="none" stroke="#63b8ff" d="M978.6,-126.93C935.74,-112.21 841.55,-81.14 760,-63.25 681.57,-46.04 587.68,-34.91 538.97,-29.83"/>
<polygon fill="#63b8ff" stroke="#63b8ff" points="539.41,-26.36 529.1,-28.82 538.7,-33.32 539.41,-26.36"/>
</a>
</g>
<g id="a_edge9&#45;headlabel"><a xlink:href="dir_000184_000171.html" target="_top" xlink:title="12">
<text text-anchor="middle" x="541.77" y="-19.87" font-family="Helvetica,sans-Serif" font-size="10.00" fill="#63b8ff">12</text>
</a>
</g>
</g>
<!-- dir_c70e074c247f0fc7ba2b5b627ea24568&#45;&gt;dir_bdd9a5d540de89e9fe90efdfc6973a4f -->
<g id="edge10" class="edge">
<title>dir_c70e074c247f0fc7ba2b5b627ea24568&#45;&gt;dir_bdd9a5d540de89e9fe90efdfc6973a4f</title>
<g id="a_edge10"><a xlink:href="dir_000184_000022.html" target="_top">
<path fill="none" stroke="#63b8ff" d="M1025.33,-128.44C1028.24,-127.73 1031.18,-127.06 1034,-126.5 1157.95,-102 1191.52,-112.16 1316,-90.5 1316.24,-90.46 1316.48,-90.42 1316.72,-90.37"/>
<polygon fill="#63b8ff" stroke="#63b8ff" points="1317.15,-93.86 1326.3,-88.51 1315.82,-86.98 1317.15,-93.86"/>
</a>
</g>
<g id="a_edge10&#45;headlabel"><a xlink:href="dir_000184_000022.html" target="_top" xlink:title="1">
<text text-anchor="middle" x="1315.65" y="-93.16" font-family="Helvetica,sans-Serif" font-size="10.00" fill="#63b8ff">1</text>
</a>
</g>
</g>
<!-- dir_87c98c5970299b04095b64caaae46c44 -->
<g id="node10" class="node">
<title>dir_87c98c5970299b04095b64caaae46c44</title>
<g id="a_node10"><a xlink:href="dir_87c98c5970299b04095b64caaae46c44.html" target="_top" xlink:title="modload">
<polygon fill="#60a2e3" stroke="#404040" points="699.38,-145.75 646.62,-145.75 646.62,-126.5 699.38,-126.5 699.38,-145.75"/>
<text text-anchor="middle" x="673" y="-132.25" font-family="Helvetica,sans-Serif" font-size="10.00">modload</text>
</a>
</g>
</g>
<!-- dir_87c98c5970299b04095b64caaae46c44&#45;&gt;dir_9be0baa3d4a3e9f480a9ee70594037fa -->
<g id="edge11" class="edge">
<title>dir_87c98c5970299b04095b64caaae46c44&#45;&gt;dir_9be0baa3d4a3e9f480a9ee70594037fa</title>
<g id="a_edge11"><a xlink:href="dir_000193_000171.html" target="_top">
<path fill="none" stroke="#63b8ff" d="M659.05,-126.06C630.37,-107.43 564.52,-64.65 529.27,-41.75"/>
<polygon fill="#63b8ff" stroke="#63b8ff" points="531.36,-38.92 521.06,-36.41 527.54,-44.79 531.36,-38.92"/>
</a>
</g>
<g id="a_edge11&#45;headlabel"><a xlink:href="dir_000193_000171.html" target="_top" xlink:title="12">
<text text-anchor="middle" x="534.65" y="-33.8" font-family="Helvetica,sans-Serif" font-size="10.00" fill="#63b8ff">12</text>
</a>
</g>
</g>
<!-- dir_37a0b5ec4566a4318c90e018cb9457b6 -->
<g id="node11" class="node">
<title>dir_37a0b5ec4566a4318c90e018cb9457b6</title>
<g id="a_node11"><a xlink:href="dir_37a0b5ec4566a4318c90e018cb9457b6.html" target="_top" xlink:title="mtapman">
<polygon fill="#60a2e3" stroke="#404040" points="774.25,-145.75 717.75,-145.75 717.75,-126.5 774.25,-126.5 774.25,-145.75"/>
<text text-anchor="middle" x="746" y="-132.25" font-family="Helvetica,sans-Serif" font-size="10.00">mtapman</text>
</a>
</g>
</g>
<!-- dir_37a0b5ec4566a4318c90e018cb9457b6&#45;&gt;dir_9be0baa3d4a3e9f480a9ee70594037fa -->
<g id="edge12" class="edge">
<title>dir_37a0b5ec4566a4318c90e018cb9457b6&#45;&gt;dir_9be0baa3d4a3e9f480a9ee70594037fa</title>
<g id="a_edge12"><a xlink:href="dir_000197_000171.html" target="_top">
<path fill="none" stroke="#63b8ff" d="M725.95,-126.06C683.95,-107.07 586.5,-63.02 536.62,-40.47"/>
<polygon fill="#63b8ff" stroke="#63b8ff" points="538.09,-37.29 527.54,-36.36 535.21,-43.67 538.09,-37.29"/>
</a>
</g>
<g id="a_edge12&#45;headlabel"><a xlink:href="dir_000197_000171.html" target="_top" xlink:title="17">
<text text-anchor="middle" x="541.16" y="-31.69" font-family="Helvetica,sans-Serif" font-size="10.00" fill="#63b8ff">17</text>
</a>
</g>
</g>
<!-- dir_cb26f304a37e679cc21ccc4e4a07be73 -->
<g id="node12" class="node">
<title>dir_cb26f304a37e679cc21ccc4e4a07be73</title>
<g id="a_node12"><a xlink:href="dir_cb26f304a37e679cc21ccc4e4a07be73.html" target="_top" xlink:title="padman">
<polygon fill="#60a2e3" stroke="#404040" points="132.25,-145.75 81.75,-145.75 81.75,-126.5 132.25,-126.5 132.25,-145.75"/>
<text text-anchor="middle" x="107" y="-132.25" font-family="Helvetica,sans-Serif" font-size="10.00">padman</text>
</a>
</g>
</g>
<!-- dir_cb26f304a37e679cc21ccc4e4a07be73&#45;&gt;dir_9be0baa3d4a3e9f480a9ee70594037fa -->
<g id="edge13" class="edge">
<title>dir_cb26f304a37e679cc21ccc4e4a07be73&#45;&gt;dir_9be0baa3d4a3e9f480a9ee70594037fa</title>
<g id="a_edge13"><a xlink:href="dir_000213_000171.html" target="_top">
<path fill="none" stroke="#63b8ff" d="M132.61,-128.59C135.44,-127.88 138.28,-127.17 141,-126.5 207.13,-110.12 232.85,-127.59 290,-90.5 302.83,-82.18 297.96,-71.24 311,-63.25 361.54,-32.27 432.26,-26.39 473.18,-25.86"/>
<polygon fill="#63b8ff" stroke="#63b8ff" points="473.12,-29.36 483.11,-25.85 473.11,-22.36 473.12,-29.36"/>
</a>
</g>
<g id="a_edge13&#45;headlabel"><a xlink:href="dir_000213_000171.html" target="_top" xlink:title="43">
<text text-anchor="middle" x="471.04" y="-28.33" font-family="Helvetica,sans-Serif" font-size="10.00" fill="#63b8ff">43</text>
</a>
</g>
</g>
<!-- dir_1fd4d135da32a6b9ad91946f648cae84 -->
<g id="node18" class="node">
<title>dir_1fd4d135da32a6b9ad91946f648cae84</title>
<g id="a_node18"><a xlink:href="dir_1fd4d135da32a6b9ad91946f648cae84.html" target="_top" xlink:title="sio2man">
<polygon fill="#60a2e3" stroke="#404040" points="187.38,-90.5 134.62,-90.5 134.62,-71.25 187.38,-71.25 187.38,-90.5"/>
<text text-anchor="middle" x="161" y="-77" font-family="Helvetica,sans-Serif" font-size="10.00">sio2man</text>
</a>
</g>
</g>
<!-- dir_cb26f304a37e679cc21ccc4e4a07be73&#45;&gt;dir_1fd4d135da32a6b9ad91946f648cae84 -->
<g id="edge14" class="edge">
<title>dir_cb26f304a37e679cc21ccc4e4a07be73&#45;&gt;dir_1fd4d135da32a6b9ad91946f648cae84</title>
<g id="a_edge14"><a xlink:href="dir_000213_000238.html" target="_top">
<path fill="none" stroke="#63b8ff" d="M115.92,-126.33C123.45,-118.9 134.47,-108.04 143.73,-98.91"/>
<polygon fill="#63b8ff" stroke="#63b8ff" points="146.15,-101.44 150.81,-91.92 141.23,-96.45 146.15,-101.44"/>
</a>
</g>
<g id="a_edge14&#45;headlabel"><a xlink:href="dir_000213_000238.html" target="_top" xlink:title="2">
<text text-anchor="middle" x="146.66" y="-101.04" font-family="Helvetica,sans-Serif" font-size="10.00" fill="#63b8ff">2</text>
</a>
</g>
</g>
<!-- dir_6f170e5d4e2c7a590428c890b6770715 -->
<g id="node13" class="node">
<title>dir_6f170e5d4e2c7a590428c890b6770715</title>
<g id="a_node13"><a xlink:href="dir_6f170e5d4e2c7a590428c890b6770715.html" target="_top" xlink:title="reboot">
<polygon fill="#60a2e3" stroke="#404040" points="835.5,-145.75 792.5,-145.75 792.5,-126.5 835.5,-126.5 835.5,-145.75"/>
<text text-anchor="middle" x="814" y="-132.25" font-family="Helvetica,sans-Serif" font-size="10.00">reboot</text>
</a>
</g>
</g>
<!-- dir_6f170e5d4e2c7a590428c890b6770715&#45;&gt;dir_9be0baa3d4a3e9f480a9ee70594037fa -->
<g id="edge15" class="edge">
<title>dir_6f170e5d4e2c7a590428c890b6770715&#45;&gt;dir_9be0baa3d4a3e9f480a9ee70594037fa</title>
<g id="a_edge15"><a xlink:href="dir_000223_000171.html" target="_top">
<path fill="none" stroke="#63b8ff" d="M792,-126.62C756.15,-112.83 682.8,-84.96 620,-63.25 592.6,-53.78 561.23,-43.76 538.34,-36.6"/>
<polygon fill="#63b8ff" stroke="#63b8ff" points="539.56,-33.31 528.97,-33.68 537.48,-40 539.56,-33.31"/>
</a>
</g>
<g id="a_edge15&#45;headlabel"><a xlink:href="dir_000223_000171.html" target="_top" xlink:title="8">
<text text-anchor="middle" x="542.39" y="-27.35" font-family="Helvetica,sans-Serif" font-size="10.00" fill="#63b8ff">8</text>
</a>
</g>
</g>
<!-- dir_fe7329d8b89241d59f89f45fd75d2e77 -->
<g id="node14" class="node">
<title>dir_fe7329d8b89241d59f89f45fd75d2e77</title>
<g id="a_node14"><a xlink:href="dir_fe7329d8b89241d59f89f45fd75d2e77.html" target="_top" xlink:title="rmman">
<polygon fill="#60a2e3" stroke="#404040" points="196,-145.75 150,-145.75 150,-126.5 196,-126.5 196,-145.75"/>
<text text-anchor="middle" x="173" y="-132.25" font-family="Helvetica,sans-Serif" font-size="10.00">rmman</text>
</a>
</g>
</g>
<!-- dir_fe7329d8b89241d59f89f45fd75d2e77&#45;&gt;dir_9be0baa3d4a3e9f480a9ee70594037fa -->
<g id="edge16" class="edge">
<title>dir_fe7329d8b89241d59f89f45fd75d2e77&#45;&gt;dir_9be0baa3d4a3e9f480a9ee70594037fa</title>
<g id="a_edge16"><a xlink:href="dir_000225_000171.html" target="_top">
<path fill="none" stroke="#63b8ff" d="M196.48,-128.39C233.33,-117.69 301.53,-97.33 311,-90.5 323.18,-81.71 318.37,-71.38 331,-63.25 374.69,-35.13 436.06,-28.12 473.31,-26.64"/>
<polygon fill="#63b8ff" stroke="#63b8ff" points="473.1,-30.15 483,-26.38 472.9,-23.15 473.1,-30.15"/>
</a>
</g>
<g id="a_edge16&#45;headlabel"><a xlink:href="dir_000225_000171.html" target="_top" xlink:title="17">
<text text-anchor="middle" x="471.09" y="-29.17" font-family="Helvetica,sans-Serif" font-size="10.00" fill="#63b8ff">17</text>
</a>
</g>
</g>
<!-- dir_47d6ec5167f7ee6ef257538cbd6ee8bb -->
<g id="node15" class="node">
<title>dir_47d6ec5167f7ee6ef257538cbd6ee8bb</title>
<g id="a_node15"><a xlink:href="dir_47d6ec5167f7ee6ef257538cbd6ee8bb.html" target="_top" xlink:title="rsio2man">
<polygon fill="#60a2e3" stroke="#404040" points="263.88,-90.5 208.12,-90.5 208.12,-71.25 263.88,-71.25 263.88,-90.5"/>
<text text-anchor="middle" x="236" y="-77" font-family="Helvetica,sans-Serif" font-size="10.00">rsio2man</text>
</a>
</g>
</g>
<!-- dir_fe7329d8b89241d59f89f45fd75d2e77&#45;&gt;dir_47d6ec5167f7ee6ef257538cbd6ee8bb -->
<g id="edge18" class="edge">
<title>dir_fe7329d8b89241d59f89f45fd75d2e77&#45;&gt;dir_47d6ec5167f7ee6ef257538cbd6ee8bb</title>
<g id="a_edge18"><a xlink:href="dir_000225_000228.html" target="_top">
<path fill="none" stroke="#63b8ff" d="M183.69,-126.09C192.7,-118.47 205.83,-107.37 216.68,-98.2"/>
<polygon fill="#63b8ff" stroke="#63b8ff" points="218.94,-100.88 224.31,-91.75 214.42,-95.53 218.94,-100.88"/>
</a>
</g>
<g id="a_edge18&#45;headlabel"><a xlink:href="dir_000225_000228.html" target="_top" xlink:title="2">
<text text-anchor="middle" x="219.18" y="-100.52" font-family="Helvetica,sans-Serif" font-size="10.00" fill="#63b8ff">2</text>
</a>
</g>
</g>
<!-- dir_fe7329d8b89241d59f89f45fd75d2e77&#45;&gt;dir_bdd9a5d540de89e9fe90efdfc6973a4f -->
<g id="edge17" class="edge">
<title>dir_fe7329d8b89241d59f89f45fd75d2e77&#45;&gt;dir_bdd9a5d540de89e9fe90efdfc6973a4f</title>
<g id="a_edge17"><a xlink:href="dir_000225_000022.html" target="_top">
<path fill="none" stroke="#63b8ff" d="M196.29,-128.18C199.2,-127.51 202.15,-126.92 205,-126.5 693.65,-53.73 825.82,-152.1 1316,-90.5 1316.24,-90.47 1316.48,-90.44 1316.72,-90.41"/>
<polygon fill="#63b8ff" stroke="#63b8ff" points="1317.06,-93.9 1326.34,-88.8 1315.9,-87 1317.06,-93.9"/>
</a>
</g>
<g id="a_edge17&#45;headlabel"><a xlink:href="dir_000225_000022.html" target="_top" xlink:title="1">
<text text-anchor="middle" x="1315.47" y="-93.17" font-family="Helvetica,sans-Serif" font-size="10.00" fill="#63b8ff">1</text>
</a>
</g>
</g>
<!-- dir_47d6ec5167f7ee6ef257538cbd6ee8bb&#45;&gt;dir_9be0baa3d4a3e9f480a9ee70594037fa -->
<g id="edge19" class="edge">
<title>dir_47d6ec5167f7ee6ef257538cbd6ee8bb&#45;&gt;dir_9be0baa3d4a3e9f480a9ee70594037fa</title>
<g id="a_edge19"><a xlink:href="dir_000228_000171.html" target="_top">
<path fill="none" stroke="#63b8ff" d="M250.86,-70.87C256.11,-68.04 262.17,-65.16 268,-63.25 338.92,-40.07 426.62,-31.41 473.24,-28.29"/>
<polygon fill="#63b8ff" stroke="#63b8ff" points="473.17,-31.8 482.94,-27.69 472.74,-24.81 473.17,-31.8"/>
</a>
</g>
<g id="a_edge19&#45;headlabel"><a xlink:href="dir_000228_000171.html" target="_top" xlink:title="1">
<text text-anchor="middle" x="471.27" y="-30.89" font-family="Helvetica,sans-Serif" font-size="10.00" fill="#63b8ff">1</text>
</a>
</g>
</g>
<!-- dir_4bae4802256ab45fc18d13b3c6375605 -->
<g id="node16" class="node">
<title>dir_4bae4802256ab45fc18d13b3c6375605</title>
<g id="a_node16"><a xlink:href="dir_4bae4802256ab45fc18d13b3c6375605.html" target="_top" xlink:title="sbusintr">
<polygon fill="#60a2e3" stroke="#404040" points="109.25,-90.5 58.75,-90.5 58.75,-71.25 109.25,-71.25 109.25,-90.5"/>
<text text-anchor="middle" x="84" y="-77" font-family="Helvetica,sans-Serif" font-size="10.00">sbusintr</text>
</a>
</g>
</g>
<!-- dir_4bae4802256ab45fc18d13b3c6375605&#45;&gt;dir_9be0baa3d4a3e9f480a9ee70594037fa -->
<g id="edge20" class="edge">
<title>dir_4bae4802256ab45fc18d13b3c6375605&#45;&gt;dir_9be0baa3d4a3e9f480a9ee70594037fa</title>
<g id="a_edge20"><a xlink:href="dir_000230_000171.html" target="_top">
<path fill="none" stroke="#63b8ff" d="M103.71,-70.75C110.62,-67.91 118.53,-65.05 126,-63.25 251.86,-32.92 406.9,-27.55 473.31,-26.71"/>
<polygon fill="#63b8ff" stroke="#63b8ff" points="473.17,-30.21 483.13,-26.62 473.1,-23.21 473.17,-30.21"/>
</a>
</g>
<g id="a_edge20&#45;headlabel"><a xlink:href="dir_000230_000171.html" target="_top" xlink:title="10">
<text text-anchor="middle" x="471.11" y="-29.2" font-family="Helvetica,sans-Serif" font-size="10.00" fill="#63b8ff">10</text>
</a>
</g>
</g>
<!-- dir_c3fae06f71c3e401160299d109ef6df7 -->
<g id="node17" class="node">
<title>dir_c3fae06f71c3e401160299d109ef6df7</title>
<g id="a_node17"><a xlink:href="dir_c3fae06f71c3e401160299d109ef6df7.html" target="_top" xlink:title="siftoo">
<polygon fill="#60a2e3" stroke="#404040" points="64,-145.75 24,-145.75 24,-126.5 64,-126.5 64,-145.75"/>
<text text-anchor="middle" x="44" y="-132.25" font-family="Helvetica,sans-Serif" font-size="10.00">siftoo</text>
</a>
</g>
</g>
<!-- dir_c3fae06f71c3e401160299d109ef6df7&#45;&gt;dir_9be0baa3d4a3e9f480a9ee70594037fa -->
<g id="edge21" class="edge">
<title>dir_c3fae06f71c3e401160299d109ef6df7&#45;&gt;dir_9be0baa3d4a3e9f480a9ee70594037fa</title>
<g id="a_edge21"><a xlink:href="dir_000236_000171.html" target="_top">
<path fill="none" stroke="#63b8ff" d="M64.2,-128.8C67.14,-127.98 70.14,-127.18 73,-126.5 160.86,-105.59 198.23,-141.17 273,-90.5 284.82,-82.49 278.14,-71.2 290,-63.25 319.38,-43.55 420.11,-33.14 472.98,-28.92"/>
<polygon fill="#63b8ff" stroke="#63b8ff" points="473.2,-32.42 482.9,-28.16 472.66,-25.44 473.2,-32.42"/>
</a>
</g>
<g id="a_edge21&#45;headlabel"><a xlink:href="dir_000236_000171.html" target="_top" xlink:title="13">
<text text-anchor="middle" x="471.34" y="-31.53" font-family="Helvetica,sans-Serif" font-size="10.00" fill="#63b8ff">13</text>
</a>
</g>
</g>
<!-- dir_c3fae06f71c3e401160299d109ef6df7&#45;&gt;dir_4bae4802256ab45fc18d13b3c6375605 -->
<g id="edge22" class="edge">
<title>dir_c3fae06f71c3e401160299d109ef6df7&#45;&gt;dir_4bae4802256ab45fc18d13b3c6375605</title>
<g id="a_edge22"><a xlink:href="dir_000236_000230.html" target="_top">
<path fill="none" stroke="#63b8ff" d="M50.61,-126.33C55.96,-119.21 63.68,-108.93 70.35,-100.05"/>
<polygon fill="#63b8ff" stroke="#63b8ff" points="73.13,-102.17 76.34,-92.07 67.54,-97.96 73.13,-102.17"/>
</a>
</g>
<g id="a_edge22&#45;headlabel"><a xlink:href="dir_000236_000230.html" target="_top" xlink:title="3">
<text text-anchor="middle" x="74.15" y="-101.66" font-family="Helvetica,sans-Serif" font-size="10.00" fill="#63b8ff">3</text>
</a>
</g>
</g>
<!-- dir_1fd4d135da32a6b9ad91946f648cae84&#45;&gt;dir_9be0baa3d4a3e9f480a9ee70594037fa -->
<g id="edge23" class="edge">
<title>dir_1fd4d135da32a6b9ad91946f648cae84&#45;&gt;dir_9be0baa3d4a3e9f480a9ee70594037fa</title>
<g id="a_edge23"><a xlink:href="dir_000238_000171.html" target="_top">
<path fill="none" stroke="#63b8ff" d="M178.78,-70.81C185.03,-67.97 192.19,-65.1 199,-63.25 296.47,-36.74 416.54,-29.41 473.31,-27.39"/>
<polygon fill="#63b8ff" stroke="#63b8ff" points="473.35,-30.89 483.24,-27.08 473.13,-23.9 473.35,-30.89"/>
</a>
</g>
<g id="a_edge23&#45;headlabel"><a xlink:href="dir_000238_000171.html" target="_top" xlink:title="19">
<text text-anchor="middle" x="471.36" y="-29.92" font-family="Helvetica,sans-Serif" font-size="10.00" fill="#63b8ff">19</text>
</a>
</g>
</g>
<!-- dir_a41af06f3bbae69c1382d5deb2bdd8e8 -->
<g id="node19" class="node">
<title>dir_a41af06f3bbae69c1382d5deb2bdd8e8</title>
<g id="a_node19"><a xlink:href="dir_a41af06f3bbae69c1382d5deb2bdd8e8.html" target="_top" xlink:title="ssbusc">
<polygon fill="#60a2e3" stroke="#404040" points="261.75,-145.75 214.25,-145.75 214.25,-126.5 261.75,-126.5 261.75,-145.75"/>
<text text-anchor="middle" x="238" y="-132.25" font-family="Helvetica,sans-Serif" font-size="10.00">ssbusc</text>
</a>
</g>
</g>
<!-- dir_a41af06f3bbae69c1382d5deb2bdd8e8&#45;&gt;dir_9be0baa3d4a3e9f480a9ee70594037fa -->
<g id="edge24" class="edge">
<title>dir_a41af06f3bbae69c1382d5deb2bdd8e8&#45;&gt;dir_9be0baa3d4a3e9f480a9ee70594037fa</title>
<g id="a_edge24"><a xlink:href="dir_000385_000171.html" target="_top">
<path fill="none" stroke="#63b8ff" d="M262.1,-126.81C281.85,-119.27 309.9,-106.83 331,-90.5 343.53,-80.8 340.51,-71.58 354,-63.25 390.92,-40.45 441.01,-31.85 473.42,-28.6"/>
<polygon fill="#63b8ff" stroke="#63b8ff" points="473.33,-32.12 482.99,-27.76 472.72,-25.14 473.33,-32.12"/>
</a>
</g>
<g id="a_edge24&#45;headlabel"><a xlink:href="dir_000385_000171.html" target="_top" xlink:title="4">
<text text-anchor="middle" x="471.51" y="-31.25" font-family="Helvetica,sans-Serif" font-size="10.00" fill="#63b8ff">4</text>
</a>
</g>
</g>
<!-- dir_952a988346c879bc3b2834e2377036db -->
<g id="node20" class="node">
<title>dir_952a988346c879bc3b2834e2377036db</title>
<g id="a_node20"><a xlink:href="dir_952a988346c879bc3b2834e2377036db.html" target="_top" xlink:title="stdio">
<polygon fill="#60a2e3" stroke="#404040" points="316.5,-145.75 279.5,-145.75 279.5,-126.5 316.5,-126.5 316.5,-145.75"/>
<text text-anchor="middle" x="298" y="-132.25" font-family="Helvetica,sans-Serif" font-size="10.00">stdio</text>
</a>
</g>
</g>
<!-- dir_952a988346c879bc3b2834e2377036db&#45;&gt;dir_9be0baa3d4a3e9f480a9ee70594037fa -->
<g id="edge25" class="edge">
<title>dir_952a988346c879bc3b2834e2377036db&#45;&gt;dir_9be0baa3d4a3e9f480a9ee70594037fa</title>
<g id="a_edge25"><a xlink:href="dir_000388_000171.html" target="_top">
<path fill="none" stroke="#63b8ff" d="M309.17,-126.15C327.88,-111.44 367.13,-81.99 404,-63.25 426.4,-51.86 453.18,-42.39 473.68,-35.93"/>
<polygon fill="#63b8ff" stroke="#63b8ff" points="474.67,-39.29 483.2,-33.02 472.62,-32.6 474.67,-39.29"/>
</a>
</g>
<g id="a_edge25&#45;headlabel"><a xlink:href="dir_000388_000171.html" target="_top" xlink:title="4">
<text text-anchor="middle" x="473.51" y="-38.74" font-family="Helvetica,sans-Serif" font-size="10.00" fill="#63b8ff">4</text>
</a>
</g>
</g>
<!-- dir_1bd32d4ef826aeeda00870843eb45c97 -->
<g id="node21" class="node">
<title>dir_1bd32d4ef826aeeda00870843eb45c97</title>
<g id="a_node21"><a xlink:href="dir_1bd32d4ef826aeeda00870843eb45c97.html" target="_top" xlink:title="sysclib">
<polygon fill="#60a2e3" stroke="#404040" points="1089,-145.75 1043,-145.75 1043,-126.5 1089,-126.5 1089,-145.75"/>
<text text-anchor="middle" x="1066" y="-132.25" font-family="Helvetica,sans-Serif" font-size="10.00">sysclib</text>
</a>
</g>
</g>
<!-- dir_1bd32d4ef826aeeda00870843eb45c97&#45;&gt;dir_9be0baa3d4a3e9f480a9ee70594037fa -->
<g id="edge26" class="edge">
<title>dir_1bd32d4ef826aeeda00870843eb45c97&#45;&gt;dir_9be0baa3d4a3e9f480a9ee70594037fa</title>
<g id="a_edge26"><a xlink:href="dir_000394_000171.html" target="_top">
<path fill="none" stroke="#63b8ff" d="M1042.78,-127.11C998.85,-112.26 900.32,-80.41 815,-63.25 715.58,-43.26 595.81,-32.89 539,-28.78"/>
<polygon fill="#63b8ff" stroke="#63b8ff" points="539.27,-25.3 529.05,-28.09 538.78,-32.28 539.27,-25.3"/>
</a>
</g>
<g id="a_edge26&#45;headlabel"><a xlink:href="dir_000394_000171.html" target="_top" xlink:title="78">
<text text-anchor="middle" x="541.55" y="-18.73" font-family="Helvetica,sans-Serif" font-size="10.00" fill="#63b8ff">78</text>
</a>
</g>
</g>
<!-- dir_1bd32d4ef826aeeda00870843eb45c97&#45;&gt;dir_bdd9a5d540de89e9fe90efdfc6973a4f -->
<g id="edge27" class="edge">
<title>dir_1bd32d4ef826aeeda00870843eb45c97&#45;&gt;dir_bdd9a5d540de89e9fe90efdfc6973a4f</title>
<g id="a_edge27"><a xlink:href="dir_000394_000022.html" target="_top">
<path fill="none" stroke="#63b8ff" d="M1089.35,-128.54C1092.25,-127.81 1095.19,-127.11 1098,-126.5 1193.97,-105.7 1219.58,-109.11 1316,-90.5 1316.24,-90.45 1316.48,-90.41 1316.72,-90.36"/>
<polygon fill="#63b8ff" stroke="#63b8ff" points="1317.19,-93.84 1326.28,-88.4 1315.78,-86.98 1317.19,-93.84"/>
</a>
</g>
<g id="a_edge27&#45;headlabel"><a xlink:href="dir_000394_000022.html" target="_top" xlink:title="1">
<text text-anchor="middle" x="1315.72" y="-93.16" font-family="Helvetica,sans-Serif" font-size="10.00" fill="#63b8ff">1</text>
</a>
</g>
</g>
<!-- dir_d3b40e87d731c1e886b7a70e6daaf700 -->
<g id="node22" class="node">
<title>dir_d3b40e87d731c1e886b7a70e6daaf700</title>
<g id="a_node22"><a xlink:href="dir_d3b40e87d731c1e886b7a70e6daaf700.html" target="_top" xlink:title="threadman">
<polygon fill="#60a2e3" stroke="#404040" points="1168.88,-145.75 1107.12,-145.75 1107.12,-126.5 1168.88,-126.5 1168.88,-145.75"/>
<text text-anchor="middle" x="1138" y="-132.25" font-family="Helvetica,sans-Serif" font-size="10.00">threadman</text>
</a>
</g>
</g>
<!-- dir_d3b40e87d731c1e886b7a70e6daaf700&#45;&gt;dir_9be0baa3d4a3e9f480a9ee70594037fa -->
<g id="edge28" class="edge">
<title>dir_d3b40e87d731c1e886b7a70e6daaf700&#45;&gt;dir_9be0baa3d4a3e9f480a9ee70594037fa</title>
<g id="a_edge28"><a xlink:href="dir_000403_000171.html" target="_top">
<path fill="none" stroke="#63b8ff" d="M1110.39,-126.05C1062.44,-110.65 960.45,-79.51 872,-63.25 750.16,-40.85 602.8,-31.37 538.57,-28.09"/>
<polygon fill="#63b8ff" stroke="#63b8ff" points="538.88,-24.6 528.72,-27.6 538.54,-31.59 538.88,-24.6"/>
</a>
</g>
<g id="a_edge28&#45;headlabel"><a xlink:href="dir_000403_000171.html" target="_top" xlink:title="46">
<text text-anchor="middle" x="541.1" y="-17.99" font-family="Helvetica,sans-Serif" font-size="10.00" fill="#63b8ff">46</text>
</a>
</g>
</g>
<!-- dir_d3b40e87d731c1e886b7a70e6daaf700&#45;&gt;dir_bdd9a5d540de89e9fe90efdfc6973a4f -->
<g id="edge29" class="edge">
<title>dir_d3b40e87d731c1e886b7a70e6daaf700&#45;&gt;dir_bdd9a5d540de89e9fe90efdfc6973a4f</title>
<g id="a_edge29"><a xlink:href="dir_000403_000022.html" target="_top">
<path fill="none" stroke="#63b8ff" d="M1169.09,-127.5C1208.08,-117.93 1274.91,-101.53 1316.92,-91.22"/>
<polygon fill="#63b8ff" stroke="#63b8ff" points="1317.72,-94.63 1326.6,-88.84 1316.06,-87.83 1317.72,-94.63"/>
</a>
</g>
<g id="a_edge29&#45;headlabel"><a xlink:href="dir_000403_000022.html" target="_top" xlink:title="1">
<text text-anchor="middle" x="1316.38" y="-94" font-family="Helvetica,sans-Serif" font-size="10.00" fill="#63b8ff">1</text>
</a>
</g>
</g>
<!-- dir_031757951e60c16ad930ba76071ecfef -->
<g id="node23" class="node">
<title>dir_031757951e60c16ad930ba76071ecfef</title>
<g id="a_node23"><a xlink:href="dir_031757951e60c16ad930ba76071ecfef.html" target="_top" xlink:title="timrman">
<polygon fill="#60a2e3" stroke="#404040" points="1238.62,-145.75 1187.38,-145.75 1187.38,-126.5 1238.62,-126.5 1238.62,-145.75"/>
<text text-anchor="middle" x="1213" y="-132.25" font-family="Helvetica,sans-Serif" font-size="10.00">timrman</text>
</a>
</g>
</g>
<!-- dir_031757951e60c16ad930ba76071ecfef&#45;&gt;dir_9be0baa3d4a3e9f480a9ee70594037fa -->
<g id="edge30" class="edge">
<title>dir_031757951e60c16ad930ba76071ecfef&#45;&gt;dir_9be0baa3d4a3e9f480a9ee70594037fa</title>
<g id="a_edge30"><a xlink:href="dir_000404_000171.html" target="_top">
<path fill="none" stroke="#63b8ff" d="M1187.25,-126.91C1138.55,-111.73 1029.35,-79.36 935,-63.25 788.73,-38.28 611.34,-30.01 539.05,-27.56"/>
<polygon fill="#63b8ff" stroke="#63b8ff" points="539.21,-24.06 529.1,-27.24 538.98,-31.06 539.21,-24.06"/>
</a>
</g>
<g id="a_edge30&#45;headlabel"><a xlink:href="dir_000404_000171.html" target="_top" xlink:title="6">
<text text-anchor="middle" x="541.38" y="-17.42" font-family="Helvetica,sans-Serif" font-size="10.00" fill="#63b8ff">6</text>
</a>
</g>
</g>
<!-- dir_031757951e60c16ad930ba76071ecfef&#45;&gt;dir_bdd9a5d540de89e9fe90efdfc6973a4f -->
<g id="edge31" class="edge">
<title>dir_031757951e60c16ad930ba76071ecfef&#45;&gt;dir_bdd9a5d540de89e9fe90efdfc6973a4f</title>
<g id="a_edge31"><a xlink:href="dir_000404_000022.html" target="_top">
<path fill="none" stroke="#63b8ff" d="M1237.09,-126.09C1259.94,-117.52 1294.52,-104.56 1320.33,-94.88"/>
<polygon fill="#63b8ff" stroke="#63b8ff" points="1321.24,-98.27 1329.38,-91.48 1318.78,-91.72 1321.24,-98.27"/>
</a>
</g>
<g id="a_edge31&#45;headlabel"><a xlink:href="dir_000404_000022.html" target="_top" xlink:title="1">
<text text-anchor="middle" x="1320.29" y="-97.79" font-family="Helvetica,sans-Serif" font-size="10.00" fill="#63b8ff">1</text>
</a>
</g>
</g>
<!-- dir_ba5b6e33a21a738024e426bc2a53820a -->
<g id="node24" class="node">
<title>dir_ba5b6e33a21a738024e426bc2a53820a</title>
<g id="a_node24"><a xlink:href="dir_ba5b6e33a21a738024e426bc2a53820a.html" target="_top" xlink:title="udnl">
<polygon fill="#60a2e3" stroke="#404040" points="369,-145.75 335,-145.75 335,-126.5 369,-126.5 369,-145.75"/>
<text text-anchor="middle" x="352" y="-132.25" font-family="Helvetica,sans-Serif" font-size="10.00">udnl</text>
</a>
</g>
</g>
<!-- dir_ba5b6e33a21a738024e426bc2a53820a&#45;&gt;dir_9be0baa3d4a3e9f480a9ee70594037fa -->
<g id="edge32" class="edge">
<title>dir_ba5b6e33a21a738024e426bc2a53820a&#45;&gt;dir_9be0baa3d4a3e9f480a9ee70594037fa</title>
<g id="a_edge32"><a xlink:href="dir_000407_000171.html" target="_top">
<path fill="none" stroke="#63b8ff" d="M362.85,-126.06C379.89,-111.99 414.17,-84.31 445,-63.25 456.21,-55.59 469.03,-47.76 480.02,-41.32"/>
<polygon fill="#63b8ff" stroke="#63b8ff" points="481.67,-44.41 488.57,-36.37 478.16,-38.35 481.67,-44.41"/>
</a>
</g>
<g id="a_edge32&#45;headlabel"><a xlink:href="dir_000407_000171.html" target="_top" xlink:title="17">
<text text-anchor="middle" x="481.29" y="-44.03" font-family="Helvetica,sans-Serif" font-size="10.00" fill="#63b8ff">17</text>
</a>
</g>
</g>
</g>
</svg>
