<?xml version="1.0" encoding="UTF-8" standalone="no"?>
<!DOCTYPE svg PUBLIC "-//W3C//DTD SVG 1.1//EN"
 "http://www.w3.org/Graphics/SVG/1.1/DTD/svg11.dtd">
<!-- Generated by graphviz version 9.0.0 (20230911.1827)
 -->
<!-- Title: iop/kernel/include/sifman.h Pages: 1 -->
<svg width="5254pt" height="172pt"
 viewBox="0.00 0.00 5253.62 171.50" xmlns="http://www.w3.org/2000/svg" xmlns:xlink="http://www.w3.org/1999/xlink">
<g id="graph0" class="graph" transform="scale(1 1) rotate(0) translate(4 167.5)">
<title>iop/kernel/include/sifman.h</title>
<!-- Node1 -->
<g id="Node000001" class="node">
<title>Node1</title>
<g id="a_Node000001"><a xlink:title=" ">
<polygon fill="#999999" stroke="#666666" points="2614.25,-163.5 2522.5,-163.5 2522.5,-133 2614.25,-133 2614.25,-163.5"/>
<text text-anchor="start" x="2530.5" y="-150" font-family="Helvetica,sans-Serif" font-size="10.00">iop/kernel/include</text>
<text text-anchor="middle" x="2568.38" y="-138.75" font-family="Helvetica,sans-Serif" font-size="10.00">/sifman.h</text>
</a>
</g>
</g>
<!-- Node2 -->
<g id="Node000002" class="node">
<title>Node2</title>
<g id="a_Node000002"><a xlink:href="common_2sbus_2src_2irx__imports_8h_source.html" target="_top" xlink:title=" ">
<polygon fill="white" stroke="#666666" points="106.75,-97 0,-97 0,-66.5 106.75,-66.5 106.75,-97"/>
<text text-anchor="start" x="8" y="-83.5" font-family="Helvetica,sans-Serif" font-size="10.00">common/sbus/src/irx</text>
<text text-anchor="middle" x="53.38" y="-72.25" font-family="Helvetica,sans-Serif" font-size="10.00">_imports.h</text>
</a>
</g>
</g>
<!-- Node1&#45;&gt;Node2 -->
<g id="edge1_Node000001_Node000002" class="edge">
<title>Node1&#45;&gt;Node2</title>
<g id="a_edge1_Node000001_Node000002"><a xlink:title=" ">
<path fill="none" stroke="#63b8ff" d="M2510.61,-146.78C2163.33,-143.85 359.7,-127.25 115.38,-97 112.63,-96.66 109.84,-96.25 107.02,-95.79"/>
<polygon fill="#63b8ff" stroke="#63b8ff" points="2510.57,-150.28 2520.6,-146.86 2510.63,-143.28 2510.57,-150.28"/>
</a>
</g>
</g>
<!-- Node3 -->
<g id="Node000003" class="node">
<title>Node3</title>
<g id="a_Node000003"><a xlink:href="iop_2cdvd_2cdfs_2src_2irx__imports_8h_source.html" target="_top" xlink:title=" ">
<polygon fill="white" stroke="#666666" points="228.25,-97 124.5,-97 124.5,-66.5 228.25,-66.5 228.25,-97"/>
<text text-anchor="start" x="132.5" y="-83.5" font-family="Helvetica,sans-Serif" font-size="10.00">iop/cdvd/cdfs/src/irx</text>
<text text-anchor="middle" x="176.38" y="-72.25" font-family="Helvetica,sans-Serif" font-size="10.00">_imports.h</text>
</a>
</g>
</g>
<!-- Node1&#45;&gt;Node3 -->
<g id="edge2_Node000001_Node000003" class="edge">
<title>Node1&#45;&gt;Node3</title>
<g id="a_edge2_Node000001_Node000003"><a xlink:title=" ">
<path fill="none" stroke="#63b8ff" d="M2511.1,-146.73C2175.3,-143.58 468.94,-126.22 237.38,-97 234.46,-96.63 231.48,-96.18 228.49,-95.68"/>
<polygon fill="#63b8ff" stroke="#63b8ff" points="2510.92,-150.23 2520.95,-146.82 2510.98,-143.23 2510.92,-150.23"/>
</a>
</g>
</g>
<!-- Node4 -->
<g id="Node000004" class="node">
<title>Node4</title>
<g id="a_Node000004"><a xlink:href="iop_2debug_2iop__sbusdbg_2src_2irx__imports_8h_source.html" target="_top" xlink:title=" ">
<polygon fill="white" stroke="#666666" points="362.25,-97 246.5,-97 246.5,-66.5 362.25,-66.5 362.25,-97"/>
<text text-anchor="start" x="254.5" y="-83.5" font-family="Helvetica,sans-Serif" font-size="10.00">iop/debug/iop_sbusdbg</text>
<text text-anchor="middle" x="304.38" y="-72.25" font-family="Helvetica,sans-Serif" font-size="10.00">/src/irx_imports.h</text>
</a>
</g>
</g>
<!-- Node1&#45;&gt;Node4 -->
<g id="edge3_Node000001_Node000004" class="edge">
<title>Node1&#45;&gt;Node4</title>
<g id="a_edge3_Node000001_Node000004"><a xlink:title=" ">
<path fill="none" stroke="#63b8ff" d="M2511.05,-147.39C2209.39,-147.89 803.51,-147.45 371.38,-97 368.54,-96.67 365.65,-96.27 362.73,-95.83"/>
<polygon fill="#63b8ff" stroke="#63b8ff" points="2510.63,-150.89 2520.62,-147.37 2510.61,-143.89 2510.63,-150.89"/>
</a>
</g>
</g>
<!-- Node5 -->
<g id="Node000005" class="node">
<title>Node5</title>
<g id="a_Node000005"><a xlink:href="iop_2debug_2iopdebug_2src_2irx__imports_8h_source.html" target="_top" xlink:title=" ">
<polygon fill="white" stroke="#666666" points="480.38,-97 380.38,-97 380.38,-66.5 480.38,-66.5 480.38,-97"/>
<text text-anchor="start" x="388.38" y="-83.5" font-family="Helvetica,sans-Serif" font-size="10.00">iop/debug/iopdebug</text>
<text text-anchor="middle" x="430.38" y="-72.25" font-family="Helvetica,sans-Serif" font-size="10.00">/src/irx_imports.h</text>
</a>
</g>
</g>
<!-- Node1&#45;&gt;Node5 -->
<g id="edge4_Node000001_Node000005" class="edge">
<title>Node1&#45;&gt;Node5</title>
<g id="a_edge4_Node000001_Node000005"><a xlink:title=" ">
<path fill="none" stroke="#63b8ff" d="M2510.85,-147.51C2218.58,-148.6 896.05,-150.41 489.38,-97 486.55,-96.63 483.67,-96.18 480.77,-95.67"/>
<polygon fill="#63b8ff" stroke="#63b8ff" points="2510.51,-151.01 2520.5,-147.48 2510.49,-144.01 2510.51,-151.01"/>
</a>
</g>
</g>
<!-- Node6 -->
<g id="Node000006" class="node">
<title>Node6</title>
<g id="a_Node000006"><a xlink:href="ioptrap_8c.html" target="_top" xlink:title=" ">
<polygon fill="white" stroke="#666666" points="604.75,-97 498,-97 498,-66.5 604.75,-66.5 604.75,-97"/>
<text text-anchor="start" x="506" y="-83.5" font-family="Helvetica,sans-Serif" font-size="10.00">iop/debug/ioptrap/src</text>
<text text-anchor="middle" x="551.38" y="-72.25" font-family="Helvetica,sans-Serif" font-size="10.00">/ioptrap.c</text>
</a>
</g>
</g>
<!-- Node1&#45;&gt;Node6 -->
<g id="edge5_Node000001_Node000006" class="edge">
<title>Node1&#45;&gt;Node6</title>
<g id="a_edge5_Node000001_Node000006"><a xlink:title=" ">
<path fill="none" stroke="#63b8ff" d="M2511.19,-147.3C2230.37,-147.29 995.5,-144.53 614.38,-97 611.37,-96.63 608.3,-96.17 605.21,-95.66"/>
<polygon fill="#63b8ff" stroke="#63b8ff" points="2510.8,-150.8 2520.8,-147.3 2510.8,-143.8 2510.8,-150.8"/>
</a>
</g>
</g>
<!-- Node7 -->
<g id="Node000007" class="node">
<title>Node7</title>
<g id="a_Node000007"><a xlink:href="iop_2debug_2ioptrap_2src_2irx__imports_8h_source.html" target="_top" xlink:title=" ">
<polygon fill="white" stroke="#666666" points="729.75,-97 623,-97 623,-66.5 729.75,-66.5 729.75,-97"/>
<text text-anchor="start" x="631" y="-83.5" font-family="Helvetica,sans-Serif" font-size="10.00">iop/debug/ioptrap/src</text>
<text text-anchor="middle" x="676.38" y="-72.25" font-family="Helvetica,sans-Serif" font-size="10.00">/irx_imports.h</text>
</a>
</g>
</g>
<!-- Node1&#45;&gt;Node7 -->
<g id="edge6_Node000001_Node000007" class="edge">
<title>Node1&#45;&gt;Node7</title>
<g id="a_edge6_Node000001_Node000007"><a xlink:title=" ">
<path fill="none" stroke="#63b8ff" d="M2510.53,-147.21C2239.46,-146.76 1093.31,-142.21 738.38,-97 735.64,-96.65 732.84,-96.23 730.03,-95.77"/>
<polygon fill="#63b8ff" stroke="#63b8ff" points="2510.51,-150.71 2520.52,-147.22 2510.52,-143.71 2510.51,-150.71"/>
</a>
</g>
</g>
<!-- Node8 -->
<g id="Node000008" class="node">
<title>Node8</title>
<g id="a_Node000008"><a xlink:href="fakehost_8c.html" target="_top" xlink:title=" ">
<polygon fill="white" stroke="#666666" points="844.88,-97 747.88,-97 747.88,-66.5 844.88,-66.5 844.88,-97"/>
<text text-anchor="start" x="755.88" y="-83.5" font-family="Helvetica,sans-Serif" font-size="10.00">iop/fs/fakehost/src</text>
<text text-anchor="middle" x="796.38" y="-72.25" font-family="Helvetica,sans-Serif" font-size="10.00">/fakehost.c</text>
</a>
</g>
</g>
<!-- Node1&#45;&gt;Node8 -->
<g id="edge7_Node000001_Node000008" class="edge">
<title>Node1&#45;&gt;Node8</title>
<g id="a_edge7_Node000001_Node000008"><a xlink:title=" ">
<path fill="none" stroke="#63b8ff" d="M2510.8,-147.23C2250.75,-146.88 1184.12,-142.64 853.38,-97 850.75,-96.64 848.07,-96.2 845.37,-95.71"/>
<polygon fill="#63b8ff" stroke="#63b8ff" points="2510.7,-150.73 2520.7,-147.24 2510.71,-143.73 2510.7,-150.73"/>
</a>
</g>
</g>
<!-- Node9 -->
<g id="Node000009" class="node">
<title>Node9</title>
<g id="a_Node000009"><a xlink:href="nprintf_8c.html" target="_top" xlink:title=" ">
<polygon fill="white" stroke="#666666" points="959.88,-97 862.88,-97 862.88,-66.5 959.88,-66.5 959.88,-97"/>
<text text-anchor="start" x="870.88" y="-83.5" font-family="Helvetica,sans-Serif" font-size="10.00">iop/fs/fakehost/src</text>
<text text-anchor="middle" x="911.38" y="-72.25" font-family="Helvetica,sans-Serif" font-size="10.00">/nprintf.c</text>
</a>
</g>
</g>
<!-- Node1&#45;&gt;Node9 -->
<g id="edge8_Node000001_Node000009" class="edge">
<title>Node1&#45;&gt;Node9</title>
<g id="a_edge8_Node000001_Node000009"><a xlink:title=" ">
<path fill="none" stroke="#63b8ff" d="M2511.05,-147.09C2262.33,-146.14 1275.41,-139.7 968.38,-97 965.75,-96.63 963.07,-96.2 960.37,-95.7"/>
<polygon fill="#63b8ff" stroke="#63b8ff" points="2510.8,-150.59 2520.82,-147.12 2510.83,-143.59 2510.8,-150.59"/>
</a>
</g>
</g>
<!-- Node10 -->
<g id="Node000010" class="node">
<title>Node10</title>
<g id="a_Node000010"><a xlink:href="iop_2fs_2fileio_2src_2irx__imports_8h_source.html" target="_top" xlink:title=" ">
<polygon fill="white" stroke="#666666" points="1069.25,-97 977.5,-97 977.5,-66.5 1069.25,-66.5 1069.25,-97"/>
<text text-anchor="start" x="985.5" y="-83.5" font-family="Helvetica,sans-Serif" font-size="10.00">iop/fs/fileio/src/irx</text>
<text text-anchor="middle" x="1023.38" y="-72.25" font-family="Helvetica,sans-Serif" font-size="10.00">_imports.h</text>
</a>
</g>
</g>
<!-- Node1&#45;&gt;Node10 -->
<g id="edge9_Node000001_Node000010" class="edge">
<title>Node1&#45;&gt;Node10</title>
<g id="a_edge9_Node000001_Node000010"><a xlink:title=" ">
<path fill="none" stroke="#63b8ff" d="M2510.77,-147C2272.4,-145.69 1362.4,-138.07 1078.38,-97 1075.54,-96.59 1072.65,-96.09 1069.74,-95.53"/>
<polygon fill="#63b8ff" stroke="#63b8ff" points="2510.73,-150.5 2520.75,-147.05 2510.77,-143.5 2510.73,-150.5"/>
</a>
</g>
</g>
<!-- Node12 -->
<g id="Node000012" class="node">
<title>Node12</title>
<g id="a_Node000012"><a xlink:href="file_xio__iop_8c.html" target="_top" xlink:title=" ">
<polygon fill="white" stroke="#666666" points="1171.12,-97 1087.62,-97 1087.62,-66.5 1171.12,-66.5 1171.12,-97"/>
<text text-anchor="start" x="1095.62" y="-83.5" font-family="Helvetica,sans-Serif" font-size="10.00">iop/fs/filexio/src</text>
<text text-anchor="middle" x="1129.38" y="-72.25" font-family="Helvetica,sans-Serif" font-size="10.00">/fileXio_iop.c</text>
</a>
</g>
</g>
<!-- Node1&#45;&gt;Node12 -->
<g id="edge11_Node000001_Node000012" class="edge">
<title>Node1&#45;&gt;Node12</title>
<g id="a_edge11_Node000001_Node000012"><a xlink:title=" ">
<path fill="none" stroke="#63b8ff" d="M2510.98,-146.98C2283.28,-145.62 1443.11,-137.87 1180.38,-97 1177.47,-96.55 1174.49,-95.99 1171.51,-95.35"/>
<polygon fill="#63b8ff" stroke="#63b8ff" points="2510.77,-150.48 2520.79,-147.03 2510.81,-143.48 2510.77,-150.48"/>
</a>
</g>
</g>
<!-- Node13 -->
<g id="Node000013" class="node">
<title>Node13</title>
<g id="a_Node000013"><a xlink:href="iop_2fs_2filexio_2src_2irx__imports_8h_source.html" target="_top" xlink:title=" ">
<polygon fill="white" stroke="#666666" points="1273.12,-97 1189.62,-97 1189.62,-66.5 1273.12,-66.5 1273.12,-97"/>
<text text-anchor="start" x="1197.62" y="-83.5" font-family="Helvetica,sans-Serif" font-size="10.00">iop/fs/filexio/src</text>
<text text-anchor="middle" x="1231.38" y="-72.25" font-family="Helvetica,sans-Serif" font-size="10.00">/irx_imports.h</text>
</a>
</g>
</g>
<!-- Node1&#45;&gt;Node13 -->
<g id="edge12_Node000001_Node000013" class="edge">
<title>Node1&#45;&gt;Node13</title>
<g id="a_edge12_Node000001_Node000013"><a xlink:title=" ">
<path fill="none" stroke="#63b8ff" d="M2510.61,-146.78C2293.17,-144.74 1524.04,-134.95 1282.38,-97 1279.47,-96.54 1276.49,-95.98 1273.51,-95.34"/>
<polygon fill="#63b8ff" stroke="#63b8ff" points="2510.5,-150.28 2520.53,-146.87 2510.56,-143.28 2510.5,-150.28"/>
</a>
</g>
</g>
<!-- Node14 -->
<g id="Node000014" class="node">
<title>Node14</title>
<g id="a_Node000014"><a xlink:href="iop_2fs_2http_2src_2irx__imports_8h_source.html" target="_top" xlink:title=" ">
<polygon fill="white" stroke="#666666" points="1379.75,-97 1291,-97 1291,-66.5 1379.75,-66.5 1379.75,-97"/>
<text text-anchor="start" x="1299" y="-83.5" font-family="Helvetica,sans-Serif" font-size="10.00">iop/fs/http/src/irx</text>
<text text-anchor="middle" x="1335.38" y="-72.25" font-family="Helvetica,sans-Serif" font-size="10.00">_imports.h</text>
</a>
</g>
</g>
<!-- Node1&#45;&gt;Node14 -->
<g id="edge13_Node000001_Node000014" class="edge">
<title>Node1&#45;&gt;Node14</title>
<g id="a_edge13_Node000001_Node000014"><a xlink:title=" ">
<path fill="none" stroke="#63b8ff" d="M2510.73,-146.44C2305.28,-143.28 1609.44,-130.33 1389.38,-97 1386.31,-96.54 1383.16,-95.96 1380.01,-95.32"/>
<polygon fill="#63b8ff" stroke="#63b8ff" points="2510.57,-149.93 2520.62,-146.59 2510.67,-142.94 2510.57,-149.93"/>
</a>
</g>
</g>
<!-- Node15 -->
<g id="Node000015" class="node">
<title>Node15</title>
<g id="a_Node000015"><a xlink:href="iop_2memorycard_2mcserv_2src_2irx__imports_8h_source.html" target="_top" xlink:title=" ">
<polygon fill="white" stroke="#666666" points="1518.5,-97 1398.25,-97 1398.25,-66.5 1518.5,-66.5 1518.5,-97"/>
<text text-anchor="start" x="1406.25" y="-83.5" font-family="Helvetica,sans-Serif" font-size="10.00">iop/memorycard/mcserv</text>
<text text-anchor="middle" x="1458.38" y="-72.25" font-family="Helvetica,sans-Serif" font-size="10.00">/src/irx_imports.h</text>
</a>
</g>
</g>
<!-- Node1&#45;&gt;Node15 -->
<g id="edge14_Node000001_Node000015" class="edge">
<title>Node1&#45;&gt;Node15</title>
<g id="a_edge14_Node000001_Node000015"><a xlink:title=" ">
<path fill="none" stroke="#63b8ff" d="M2510.95,-147.6C2353.21,-147.89 1900.17,-144.2 1527.38,-97 1524.58,-96.65 1521.74,-96.24 1518.87,-95.8"/>
<polygon fill="#63b8ff" stroke="#63b8ff" points="2510.73,-151.1 2520.72,-147.58 2510.71,-144.1 2510.73,-151.1"/>
</a>
</g>
</g>
<!-- Node16 -->
<g id="Node000016" class="node">
<title>Node16</title>
<g id="a_Node000016"><a xlink:href="mcserv_8h_source.html" target="_top" xlink:title=" ">
<polygon fill="white" stroke="#666666" points="1656.5,-97 1536.25,-97 1536.25,-66.5 1656.5,-66.5 1656.5,-97"/>
<text text-anchor="start" x="1544.25" y="-83.5" font-family="Helvetica,sans-Serif" font-size="10.00">iop/memorycard/mcserv</text>
<text text-anchor="middle" x="1596.38" y="-72.25" font-family="Helvetica,sans-Serif" font-size="10.00">/src/mcserv.h</text>
</a>
</g>
</g>
<!-- Node1&#45;&gt;Node16 -->
<g id="edge15_Node000001_Node000016" class="edge">
<title>Node1&#45;&gt;Node16</title>
<g id="a_edge15_Node000001_Node000016"><a xlink:title=" ">
<path fill="none" stroke="#63b8ff" d="M2511,-147C2367.73,-145.73 1982.96,-138.4 1665.38,-97 1662.59,-96.64 1659.74,-96.22 1656.87,-95.77"/>
<polygon fill="#63b8ff" stroke="#63b8ff" points="2510.56,-150.49 2520.59,-147.07 2510.62,-143.49 2510.56,-150.49"/>
</a>
</g>
</g>
<!-- Node18 -->
<g id="Node000018" class="node">
<title>Node18</title>
<g id="a_Node000018"><a xlink:href="iop_2network_2netman_2src_2irx__imports_8h_source.html" target="_top" xlink:title=" ">
<polygon fill="white" stroke="#666666" points="1776.12,-97 1674.62,-97 1674.62,-66.5 1776.12,-66.5 1776.12,-97"/>
<text text-anchor="start" x="1682.62" y="-83.5" font-family="Helvetica,sans-Serif" font-size="10.00">iop/network/netman</text>
<text text-anchor="middle" x="1725.38" y="-72.25" font-family="Helvetica,sans-Serif" font-size="10.00">/src/irx_imports.h</text>
</a>
</g>
</g>
<!-- Node1&#45;&gt;Node18 -->
<g id="edge17_Node000001_Node000018" class="edge">
<title>Node1&#45;&gt;Node18</title>
<g id="a_edge17_Node000001_Node000018"><a xlink:title=" ">
<path fill="none" stroke="#63b8ff" d="M2510.97,-146.88C2381.04,-145.32 2054.76,-137.34 1785.38,-97 1782.41,-96.56 1779.38,-96.04 1776.32,-95.47"/>
<polygon fill="#63b8ff" stroke="#63b8ff" points="2510.64,-150.38 2520.68,-146.99 2510.72,-143.38 2510.64,-150.38"/>
</a>
</g>
</g>
<!-- Node19 -->
<g id="Node000019" class="node">
<title>Node19</title>
<g id="a_Node000019"><a xlink:href="iop_2network_2netman_2src_2netman_8c_source.html" target="_top" xlink:title=" ">
<polygon fill="white" stroke="#666666" points="1896.12,-97 1794.62,-97 1794.62,-66.5 1896.12,-66.5 1896.12,-97"/>
<text text-anchor="start" x="1802.62" y="-83.5" font-family="Helvetica,sans-Serif" font-size="10.00">iop/network/netman</text>
<text text-anchor="middle" x="1845.38" y="-72.25" font-family="Helvetica,sans-Serif" font-size="10.00">/src/netman.c</text>
</a>
</g>
</g>
<!-- Node1&#45;&gt;Node19 -->
<g id="edge18_Node000001_Node000019" class="edge">
<title>Node1&#45;&gt;Node19</title>
<g id="a_edge18_Node000001_Node000019"><a xlink:title=" ">
<path fill="none" stroke="#63b8ff" d="M2510.93,-145.94C2395.53,-142.63 2127.58,-131.59 1905.38,-97 1902.41,-96.54 1899.38,-96.01 1896.33,-95.43"/>
<polygon fill="#63b8ff" stroke="#63b8ff" points="2510.67,-149.43 2520.76,-146.21 2510.86,-142.43 2510.67,-149.43"/>
</a>
</g>
</g>
<!-- Node20 -->
<g id="Node000020" class="node">
<title>Node20</title>
<g id="a_Node000020"><a xlink:href="iop_2network_2netman_2src_2rpc__client_8c_source.html" target="_top" xlink:title=" ">
<polygon fill="white" stroke="#666666" points="2016.12,-97 1914.62,-97 1914.62,-66.5 2016.12,-66.5 2016.12,-97"/>
<text text-anchor="start" x="1922.62" y="-83.5" font-family="Helvetica,sans-Serif" font-size="10.00">iop/network/netman</text>
<text text-anchor="middle" x="1965.38" y="-72.25" font-family="Helvetica,sans-Serif" font-size="10.00">/src/rpc_client.c</text>
</a>
</g>
</g>
<!-- Node1&#45;&gt;Node20 -->
<g id="edge19_Node000001_Node000020" class="edge">
<title>Node1&#45;&gt;Node20</title>
<g id="a_edge19_Node000001_Node000020"><a xlink:title=" ">
<path fill="none" stroke="#63b8ff" d="M2511.05,-144.61C2411.65,-139.43 2201.06,-125.84 2025.38,-97 2022.42,-96.51 2019.39,-95.96 2016.34,-95.37"/>
<polygon fill="#63b8ff" stroke="#63b8ff" points="2510.65,-148.09 2520.82,-145.1 2511.01,-141.1 2510.65,-148.09"/>
</a>
</g>
</g>
<!-- Node21 -->
<g id="Node000021" class="node">
<title>Node21</title>
<g id="a_Node000021"><a xlink:href="iop_2network_2netman_2src_2rpc__server_8c_source.html" target="_top" xlink:title=" ">
<polygon fill="white" stroke="#666666" points="2136.12,-97 2034.62,-97 2034.62,-66.5 2136.12,-66.5 2136.12,-97"/>
<text text-anchor="start" x="2042.62" y="-83.5" font-family="Helvetica,sans-Serif" font-size="10.00">iop/network/netman</text>
<text text-anchor="middle" x="2085.38" y="-72.25" font-family="Helvetica,sans-Serif" font-size="10.00">/src/rpc_server.c</text>
</a>
</g>
</g>
<!-- Node1&#45;&gt;Node21 -->
<g id="edge20_Node000001_Node000021" class="edge">
<title>Node1&#45;&gt;Node21</title>
<g id="a_edge20_Node000001_Node000021"><a xlink:title=" ">
<path fill="none" stroke="#63b8ff" d="M2511.09,-142.55C2429.48,-135.38 2275.25,-120.06 2145.38,-97 2142.42,-96.48 2139.4,-95.9 2136.35,-95.28"/>
<polygon fill="#63b8ff" stroke="#63b8ff" points="2510.34,-146 2520.61,-143.38 2510.95,-139.02 2510.34,-146"/>
</a>
</g>
</g>
<!-- Node22 -->
<g id="Node000022" class="node">
<title>Node22</title>
<g id="a_Node000022"><a xlink:href="iop_2network_2smbman_2src_2irx__imports_8h_source.html" target="_top" xlink:title=" ">
<polygon fill="white" stroke="#666666" points="2260.75,-97 2154,-97 2154,-66.5 2260.75,-66.5 2260.75,-97"/>
<text text-anchor="start" x="2162" y="-83.5" font-family="Helvetica,sans-Serif" font-size="10.00">iop/network/smbman</text>
<text text-anchor="middle" x="2207.38" y="-72.25" font-family="Helvetica,sans-Serif" font-size="10.00">/src/irx_imports.h</text>
</a>
</g>
</g>
<!-- Node1&#45;&gt;Node22 -->
<g id="edge21_Node000001_Node000022" class="edge">
<title>Node1&#45;&gt;Node22</title>
<g id="a_edge21_Node000001_Node000022"><a xlink:title=" ">
<path fill="none" stroke="#63b8ff" d="M2510.88,-138.52C2450.73,-129.17 2353.67,-113.43 2270.38,-97 2267.29,-96.39 2264.13,-95.75 2260.95,-95.08"/>
<polygon fill="#63b8ff" stroke="#63b8ff" points="2510.12,-141.95 2520.53,-140.02 2511.19,-135.03 2510.12,-141.95"/>
</a>
</g>
</g>
<!-- Node23 -->
<g id="Node000023" class="node">
<title>Node23</title>
<g id="a_Node000023"><a xlink:href="smb__fio_8c_source.html" target="_top" xlink:title=" ">
<polygon fill="white" stroke="#666666" points="2385.75,-97 2279,-97 2279,-66.5 2385.75,-66.5 2385.75,-97"/>
<text text-anchor="start" x="2287" y="-83.5" font-family="Helvetica,sans-Serif" font-size="10.00">iop/network/smbman</text>
<text text-anchor="middle" x="2332.38" y="-72.25" font-family="Helvetica,sans-Serif" font-size="10.00">/src/smb_fio.c</text>
</a>
</g>
</g>
<!-- Node1&#45;&gt;Node23 -->
<g id="edge22_Node000001_Node000023" class="edge">
<title>Node1&#45;&gt;Node23</title>
<g id="a_edge22_Node000001_Node000023"><a xlink:title=" ">
<path fill="none" stroke="#63b8ff" d="M2511.12,-131.6C2473.04,-121.19 2423.36,-107.62 2386.04,-97.42"/>
<polygon fill="#63b8ff" stroke="#63b8ff" points="2510,-134.92 2520.57,-134.18 2511.85,-128.17 2510,-134.92"/>
</a>
</g>
</g>
<!-- Node24 -->
<g id="Node000024" class="node">
<title>Node24</title>
<g id="a_Node000024"><a xlink:href="iop_2security_2secrsif_2src_2irx__imports_8h_source.html" target="_top" xlink:title=" ">
<polygon fill="white" stroke="#666666" points="2501.25,-97 2403.5,-97 2403.5,-66.5 2501.25,-66.5 2501.25,-97"/>
<text text-anchor="start" x="2411.5" y="-83.5" font-family="Helvetica,sans-Serif" font-size="10.00">iop/security/secrsif</text>
<text text-anchor="middle" x="2452.38" y="-72.25" font-family="Helvetica,sans-Serif" font-size="10.00">/src/irx_imports.h</text>
</a>
</g>
</g>
<!-- Node1&#45;&gt;Node24 -->
<g id="edge23_Node000001_Node000024" class="edge">
<title>Node1&#45;&gt;Node24</title>
<g id="a_edge23_Node000001_Node000024"><a xlink:title=" ">
<path fill="none" stroke="#63b8ff" d="M2532.24,-127.16C2514.87,-117.5 2494.44,-106.14 2478.59,-97.33"/>
<polygon fill="#63b8ff" stroke="#63b8ff" points="2530.29,-130.08 2540.73,-131.88 2533.69,-123.96 2530.29,-130.08"/>
</a>
</g>
</g>
<!-- Node25 -->
<g id="Node000025" class="node">
<title>Node25</title>
<g id="a_Node000025"><a xlink:href="secrsif_8c_source.html" target="_top" xlink:title=" ">
<polygon fill="white" stroke="#666666" points="2617.25,-97 2519.5,-97 2519.5,-66.5 2617.25,-66.5 2617.25,-97"/>
<text text-anchor="start" x="2527.5" y="-83.5" font-family="Helvetica,sans-Serif" font-size="10.00">iop/security/secrsif</text>
<text text-anchor="middle" x="2568.38" y="-72.25" font-family="Helvetica,sans-Serif" font-size="10.00">/src/secrsif.c</text>
</a>
</g>
</g>
<!-- Node1&#45;&gt;Node25 -->
<g id="edge24_Node000001_Node000025" class="edge">
<title>Node1&#45;&gt;Node25</title>
<g id="a_edge24_Node000001_Node000025"><a xlink:title=" ">
<path fill="none" stroke="#63b8ff" d="M2568.38,-121.31C2568.38,-113.14 2568.38,-104.41 2568.38,-97.33"/>
<polygon fill="#63b8ff" stroke="#63b8ff" points="2564.88,-121.1 2568.38,-131.1 2571.88,-121.1 2564.88,-121.1"/>
</a>
</g>
</g>
<!-- Node26 -->
<g id="Node000026" class="node">
<title>Node26</title>
<g id="a_Node000026"><a xlink:href="batch_8c.html" target="_top" xlink:title=" ">
<polygon fill="white" stroke="#666666" points="2733.25,-97 2635.5,-97 2635.5,-66.5 2733.25,-66.5 2733.25,-97"/>
<text text-anchor="start" x="2643.5" y="-83.5" font-family="Helvetica,sans-Serif" font-size="10.00">iop/sound/libsd/src</text>
<text text-anchor="middle" x="2684.38" y="-72.25" font-family="Helvetica,sans-Serif" font-size="10.00">/batch.c</text>
</a>
</g>
</g>
<!-- Node1&#45;&gt;Node26 -->
<g id="edge25_Node000001_Node000026" class="edge">
<title>Node1&#45;&gt;Node26</title>
<g id="a_edge25_Node000001_Node000026"><a xlink:title=" ">
<path fill="none" stroke="#63b8ff" d="M2604.51,-127.16C2621.88,-117.5 2642.31,-106.14 2658.16,-97.33"/>
<polygon fill="#63b8ff" stroke="#63b8ff" points="2603.06,-123.96 2596.02,-131.88 2606.46,-130.08 2603.06,-123.96"/>
</a>
</g>
</g>
<!-- Node27 -->
<g id="Node000027" class="node">
<title>Node27</title>
<g id="a_Node000027"><a xlink:href="iop_2sound_2libsd_2src_2irx__imports_8h_source.html" target="_top" xlink:title=" ">
<polygon fill="white" stroke="#666666" points="2849.25,-97 2751.5,-97 2751.5,-66.5 2849.25,-66.5 2849.25,-97"/>
<text text-anchor="start" x="2759.5" y="-83.5" font-family="Helvetica,sans-Serif" font-size="10.00">iop/sound/libsd/src</text>
<text text-anchor="middle" x="2800.38" y="-72.25" font-family="Helvetica,sans-Serif" font-size="10.00">/irx_imports.h</text>
</a>
</g>
</g>
<!-- Node1&#45;&gt;Node27 -->
<g id="edge26_Node000001_Node000027" class="edge">
<title>Node1&#45;&gt;Node27</title>
<g id="a_edge26_Node000001_Node000027"><a xlink:title=" ">
<path fill="none" stroke="#63b8ff" d="M2625.53,-131.36C2664.07,-120.65 2714.39,-106.66 2751.14,-96.44"/>
<polygon fill="#63b8ff" stroke="#63b8ff" points="2624.64,-127.97 2615.95,-134.02 2626.52,-134.72 2624.64,-127.97"/>
</a>
</g>
</g>
<!-- Node28 -->
<g id="Node000028" class="node">
<title>Node28</title>
<g id="a_Node000028"><a xlink:href="voice_8c.html" target="_top" xlink:title=" ">
<polygon fill="white" stroke="#666666" points="2965.25,-97 2867.5,-97 2867.5,-66.5 2965.25,-66.5 2965.25,-97"/>
<text text-anchor="start" x="2875.5" y="-83.5" font-family="Helvetica,sans-Serif" font-size="10.00">iop/sound/libsd/src</text>
<text text-anchor="middle" x="2916.38" y="-72.25" font-family="Helvetica,sans-Serif" font-size="10.00">/voice.c</text>
</a>
</g>
</g>
<!-- Node1&#45;&gt;Node28 -->
<g id="edge27_Node000001_Node000028" class="edge">
<title>Node1&#45;&gt;Node28</title>
<g id="a_edge27_Node000001_Node000028"><a xlink:title=" ">
<path fill="none" stroke="#63b8ff" d="M2625.77,-138.51C2684.44,-129.29 2778.08,-113.8 2858.38,-97 2861.22,-96.41 2864.13,-95.77 2867.07,-95.11"/>
<polygon fill="#63b8ff" stroke="#63b8ff" points="2625.35,-135.03 2616.02,-140.03 2626.44,-141.95 2625.35,-135.03"/>
</a>
</g>
</g>
<!-- Node29 -->
<g id="Node000029" class="node">
<title>Node29</title>
<g id="a_Node000029"><a xlink:href="eesync_8c_source.html" target="_top" xlink:title=" ">
<polygon fill="white" stroke="#666666" points="3097.12,-97 2983.62,-97 2983.62,-66.5 3097.12,-66.5 3097.12,-97"/>
<text text-anchor="start" x="2991.62" y="-83.5" font-family="Helvetica,sans-Serif" font-size="10.00">iop/system/eesync/src</text>
<text text-anchor="middle" x="3040.38" y="-72.25" font-family="Helvetica,sans-Serif" font-size="10.00">/eesync.c</text>
</a>
</g>
</g>
<!-- Node1&#45;&gt;Node29 -->
<g id="edge28_Node000001_Node000029" class="edge">
<title>Node1&#45;&gt;Node29</title>
<g id="a_edge28_Node000001_Node000029"><a xlink:title=" ">
<path fill="none" stroke="#63b8ff" d="M2625.67,-141.79C2704.51,-133.91 2850.73,-117.96 2974.38,-97 2977.26,-96.51 2980.22,-95.98 2983.2,-95.42"/>
<polygon fill="#63b8ff" stroke="#63b8ff" points="2625.65,-138.28 2616.05,-142.75 2626.34,-145.24 2625.65,-138.28"/>
</a>
</g>
</g>
<!-- Node30 -->
<g id="Node000030" class="node">
<title>Node30</title>
<g id="a_Node000030"><a xlink:href="iop_2system_2eesync_2src_2irx__imports_8h_source.html" target="_top" xlink:title=" ">
<polygon fill="white" stroke="#666666" points="3229.12,-97 3115.62,-97 3115.62,-66.5 3229.12,-66.5 3229.12,-97"/>
<text text-anchor="start" x="3123.62" y="-83.5" font-family="Helvetica,sans-Serif" font-size="10.00">iop/system/eesync/src</text>
<text text-anchor="middle" x="3172.38" y="-72.25" font-family="Helvetica,sans-Serif" font-size="10.00">/irx_imports.h</text>
</a>
</g>
</g>
<!-- Node1&#45;&gt;Node30 -->
<g id="edge29_Node000001_Node000030" class="edge">
<title>Node1&#45;&gt;Node30</title>
<g id="a_edge29_Node000001_Node000030"><a xlink:title=" ">
<path fill="none" stroke="#63b8ff" d="M2625.86,-144.14C2724.58,-138.3 2932.47,-123.8 3106.38,-97 3109.27,-96.55 3112.23,-96.06 3115.22,-95.53"/>
<polygon fill="#63b8ff" stroke="#63b8ff" points="2625.95,-140.63 2616.17,-144.71 2626.36,-147.62 2625.95,-140.63"/>
</a>
</g>
</g>
<!-- Node31 -->
<g id="Node000031" class="node">
<title>Node31</title>
<g id="a_Node000031"><a xlink:href="iop_2system_2loadfile_2src_2irx__imports_8h_source.html" target="_top" xlink:title=" ">
<polygon fill="white" stroke="#666666" points="3343.5,-97 3247.25,-97 3247.25,-66.5 3343.5,-66.5 3343.5,-97"/>
<text text-anchor="start" x="3255.25" y="-83.5" font-family="Helvetica,sans-Serif" font-size="10.00">iop/system/loadfile</text>
<text text-anchor="middle" x="3295.38" y="-72.25" font-family="Helvetica,sans-Serif" font-size="10.00">/src/irx_imports.h</text>
</a>
</g>
</g>
<!-- Node1&#45;&gt;Node31 -->
<g id="edge30_Node000001_Node000031" class="edge">
<title>Node1&#45;&gt;Node31</title>
<g id="a_edge30_Node000001_Node000031"><a xlink:title=" ">
<path fill="none" stroke="#63b8ff" d="M2626.03,-146.22C2742.47,-143.42 3013.76,-133.23 3238.38,-97 3241.19,-96.55 3244.08,-96.02 3246.98,-95.44"/>
<polygon fill="#63b8ff" stroke="#63b8ff" points="2626.02,-142.72 2616.1,-146.45 2626.18,-149.72 2626.02,-142.72"/>
</a>
</g>
</g>
<!-- Node34 -->
<g id="Node000034" class="node">
<title>Node34</title>
<g id="a_Node000034"><a xlink:href="iop_2system_2mtapman_2src_2irx__imports_8h_source.html" target="_top" xlink:title=" ">
<polygon fill="white" stroke="#666666" points="3468.75,-97 3362,-97 3362,-66.5 3468.75,-66.5 3468.75,-97"/>
<text text-anchor="start" x="3370" y="-83.5" font-family="Helvetica,sans-Serif" font-size="10.00">iop/system/mtapman</text>
<text text-anchor="middle" x="3415.38" y="-72.25" font-family="Helvetica,sans-Serif" font-size="10.00">/src/irx_imports.h</text>
</a>
</g>
</g>
<!-- Node1&#45;&gt;Node34 -->
<g id="edge33_Node000001_Node000034" class="edge">
<title>Node1&#45;&gt;Node34</title>
<g id="a_edge33_Node000001_Node000034"><a xlink:title=" ">
<path fill="none" stroke="#63b8ff" d="M2625.82,-146.68C2755.85,-144.7 3082.43,-135.93 3352.38,-97 3355.37,-96.57 3358.44,-96.07 3361.52,-95.52"/>
<polygon fill="#63b8ff" stroke="#63b8ff" points="2626.05,-143.17 2616.1,-146.82 2626.15,-150.17 2626.05,-143.17"/>
</a>
</g>
</g>
<!-- Node35 -->
<g id="Node000035" class="node">
<title>Node35</title>
<g id="a_Node000035"><a xlink:href="rpcservers_8c.html" target="_top" xlink:title=" ">
<polygon fill="white" stroke="#666666" points="3593.75,-97 3487,-97 3487,-66.5 3593.75,-66.5 3593.75,-97"/>
<text text-anchor="start" x="3495" y="-83.5" font-family="Helvetica,sans-Serif" font-size="10.00">iop/system/mtapman</text>
<text text-anchor="middle" x="3540.38" y="-72.25" font-family="Helvetica,sans-Serif" font-size="10.00">/src/rpcservers.c</text>
</a>
</g>
</g>
<!-- Node1&#45;&gt;Node35 -->
<g id="edge34_Node000001_Node000035" class="edge">
<title>Node1&#45;&gt;Node35</title>
<g id="a_edge34_Node000001_Node000035"><a xlink:title=" ">
<path fill="none" stroke="#63b8ff" d="M2625.66,-147.4C2769.59,-147.05 3157.7,-141.67 3477.38,-97 3480.37,-96.58 3483.44,-96.09 3486.53,-95.55"/>
<polygon fill="#63b8ff" stroke="#63b8ff" points="2626.02,-143.9 2616.03,-147.41 2626.03,-150.9 2626.02,-143.9"/>
</a>
</g>
</g>
<!-- Node36 -->
<g id="Node000036" class="node">
<title>Node36</title>
<g id="a_Node000036"><a xlink:href="iop_2system_2padman_2src_2irx__imports_8h_source.html" target="_top" xlink:title=" ">
<polygon fill="white" stroke="#666666" points="3729,-97 3611.75,-97 3611.75,-66.5 3729,-66.5 3729,-97"/>
<text text-anchor="start" x="3619.75" y="-83.5" font-family="Helvetica,sans-Serif" font-size="10.00">iop/system/padman/src</text>
<text text-anchor="middle" x="3670.38" y="-72.25" font-family="Helvetica,sans-Serif" font-size="10.00">/irx_imports.h</text>
</a>
</g>
</g>
<!-- Node1&#45;&gt;Node36 -->
<g id="edge35_Node000001_Node000036" class="edge">
<title>Node1&#45;&gt;Node36</title>
<g id="a_edge35_Node000001_Node000036"><a xlink:title=" ">
<path fill="none" stroke="#63b8ff" d="M2625.97,-147.63C2783.18,-147.99 3232.59,-144.43 3602.38,-97 3605.37,-96.62 3608.42,-96.17 3611.5,-95.68"/>
<polygon fill="#63b8ff" stroke="#63b8ff" points="2626.25,-144.13 2616.24,-147.6 2626.23,-151.13 2626.25,-144.13"/>
</a>
</g>
</g>
<!-- Node37 -->
<g id="Node000037" class="node">
<title>Node37</title>
<g id="a_Node000037"><a xlink:href="pad_data_8c.html" target="_top" xlink:title=" ">
<polygon fill="white" stroke="#666666" points="3864,-97 3746.75,-97 3746.75,-66.5 3864,-66.5 3864,-97"/>
<text text-anchor="start" x="3754.75" y="-83.5" font-family="Helvetica,sans-Serif" font-size="10.00">iop/system/padman/src</text>
<text text-anchor="middle" x="3805.38" y="-72.25" font-family="Helvetica,sans-Serif" font-size="10.00">/padData.c</text>
</a>
</g>
</g>
<!-- Node1&#45;&gt;Node37 -->
<g id="edge36_Node000001_Node000037" class="edge">
<title>Node1&#45;&gt;Node37</title>
<g id="a_edge36_Node000001_Node000037"><a xlink:title=" ">
<path fill="none" stroke="#63b8ff" d="M2625.88,-146.05C2830.02,-141.59 3519.38,-124.79 3738.38,-97 3740.97,-96.67 3743.61,-96.29 3746.28,-95.88"/>
<polygon fill="#63b8ff" stroke="#63b8ff" points="2625.98,-142.55 2616.06,-146.26 2626.13,-149.55 2625.98,-142.55"/>
</a>
</g>
</g>
<!-- Node38 -->
<g id="Node000038" class="node">
<title>Node38</title>
<g id="a_Node000038"><a xlink:href="pad_init_8c.html" target="_top" xlink:title=" ">
<polygon fill="white" stroke="#666666" points="3999,-97 3881.75,-97 3881.75,-66.5 3999,-66.5 3999,-97"/>
<text text-anchor="start" x="3889.75" y="-83.5" font-family="Helvetica,sans-Serif" font-size="10.00">iop/system/padman/src</text>
<text text-anchor="middle" x="3940.38" y="-72.25" font-family="Helvetica,sans-Serif" font-size="10.00">/padInit.c</text>
</a>
</g>
</g>
<!-- Node1&#45;&gt;Node38 -->
<g id="edge37_Node000001_Node000038" class="edge">
<title>Node1&#45;&gt;Node38</title>
<g id="a_edge37_Node000001_Node000038"><a xlink:title=" ">
<path fill="none" stroke="#63b8ff" d="M2625.86,-146.35C2844.81,-142.7 3626.65,-127.76 3873.38,-97 3875.97,-96.68 3878.62,-96.3 3881.28,-95.89"/>
<polygon fill="#63b8ff" stroke="#63b8ff" points="2626.11,-142.84 2616.17,-146.51 2626.22,-149.84 2626.11,-142.84"/>
</a>
</g>
</g>
<!-- Node39 -->
<g id="Node000039" class="node">
<title>Node39</title>
<g id="a_Node000039"><a xlink:href="rpcserver_8c.html" target="_top" xlink:title=" ">
<polygon fill="white" stroke="#666666" points="4134,-97 4016.75,-97 4016.75,-66.5 4134,-66.5 4134,-97"/>
<text text-anchor="start" x="4024.75" y="-83.5" font-family="Helvetica,sans-Serif" font-size="10.00">iop/system/padman/src</text>
<text text-anchor="middle" x="4075.38" y="-72.25" font-family="Helvetica,sans-Serif" font-size="10.00">/rpcserver.c</text>
</a>
</g>
</g>
<!-- Node1&#45;&gt;Node39 -->
<g id="edge38_Node000001_Node000039" class="edge">
<title>Node1&#45;&gt;Node39</title>
<g id="a_edge38_Node000001_Node000039"><a xlink:title=" ">
<path fill="none" stroke="#63b8ff" d="M2625.93,-146.58C2859.07,-143.68 3733.84,-130.72 4008.38,-97 4010.97,-96.68 4013.62,-96.31 4016.28,-95.9"/>
<polygon fill="#63b8ff" stroke="#63b8ff" points="2626.15,-143.08 2616.19,-146.7 2626.23,-150.08 2626.15,-143.08"/>
</a>
</g>
</g>
<!-- Node40 -->
<g id="Node000040" class="node">
<title>Node40</title>
<g id="a_Node000040"><a xlink:href="iop_2system_2reboot_2src_2irx__imports_8h_source.html" target="_top" xlink:title=" ">
<polygon fill="white" stroke="#666666" points="4262.25,-97 4152.5,-97 4152.5,-66.5 4262.25,-66.5 4262.25,-97"/>
<text text-anchor="start" x="4160.5" y="-83.5" font-family="Helvetica,sans-Serif" font-size="10.00">iop/system/reboot/src</text>
<text text-anchor="middle" x="4207.38" y="-72.25" font-family="Helvetica,sans-Serif" font-size="10.00">/irx_imports.h</text>
</a>
</g>
</g>
<!-- Node1&#45;&gt;Node40 -->
<g id="edge39_Node000001_Node000040" class="edge">
<title>Node1&#45;&gt;Node40</title>
<g id="a_edge39_Node000001_Node000040"><a xlink:title=" ">
<path fill="none" stroke="#63b8ff" d="M2625.59,-146.86C2871.64,-144.96 3840.96,-135.15 4143.38,-97 4146.31,-96.63 4149.31,-96.19 4152.33,-95.69"/>
<polygon fill="#63b8ff" stroke="#63b8ff" points="2625.91,-143.36 2615.94,-146.93 2625.97,-150.36 2625.91,-143.36"/>
</a>
</g>
</g>
<!-- Node42 -->
<g id="Node000042" class="node">
<title>Node42</title>
<g id="a_Node000042"><a xlink:href="iop_2system_2rmman_2src_2irx__imports_8h_source.html" target="_top" xlink:title=" ">
<polygon fill="white" stroke="#666666" points="4392.75,-97 4280,-97 4280,-66.5 4392.75,-66.5 4392.75,-97"/>
<text text-anchor="start" x="4288" y="-83.5" font-family="Helvetica,sans-Serif" font-size="10.00">iop/system/rmman/src</text>
<text text-anchor="middle" x="4336.38" y="-72.25" font-family="Helvetica,sans-Serif" font-size="10.00">/irx_imports.h</text>
</a>
</g>
</g>
<!-- Node1&#45;&gt;Node42 -->
<g id="edge41_Node000001_Node000042" class="edge">
<title>Node1&#45;&gt;Node42</title>
<g id="a_edge41_Node000001_Node000042"><a xlink:title=" ">
<path fill="none" stroke="#63b8ff" d="M2625.94,-146.99C2884.78,-145.61 3942.5,-137.54 4271.38,-97 4274.13,-96.66 4276.93,-96.26 4279.76,-95.81"/>
<polygon fill="#63b8ff" stroke="#63b8ff" points="2626.08,-143.49 2616.09,-147.04 2626.11,-150.49 2626.08,-143.49"/>
</a>
</g>
</g>
<!-- Node43 -->
<g id="Node000043" class="node">
<title>Node43</title>
<g id="a_Node000043"><a xlink:href="rmman_8c_source.html" target="_top" xlink:title=" ">
<polygon fill="white" stroke="#666666" points="4523.75,-97 4411,-97 4411,-66.5 4523.75,-66.5 4523.75,-97"/>
<text text-anchor="start" x="4419" y="-83.5" font-family="Helvetica,sans-Serif" font-size="10.00">iop/system/rmman/src</text>
<text text-anchor="middle" x="4467.38" y="-72.25" font-family="Helvetica,sans-Serif" font-size="10.00">/rmman.c</text>
</a>
</g>
</g>
<!-- Node1&#45;&gt;Node43 -->
<g id="edge42_Node000001_Node000043" class="edge">
<title>Node1&#45;&gt;Node43</title>
<g id="a_edge42_Node000001_Node000043"><a xlink:title=" ">
<path fill="none" stroke="#63b8ff" d="M2625.86,-147.11C2896.5,-146.22 4045.37,-139.94 4401.38,-97 4404.4,-96.64 4407.49,-96.2 4410.61,-95.71"/>
<polygon fill="#63b8ff" stroke="#63b8ff" points="2625.88,-143.61 2615.89,-147.14 2625.9,-150.61 2625.88,-143.61"/>
</a>
</g>
</g>
<!-- Node44 -->
<g id="Node000044" class="node">
<title>Node44</title>
<g id="a_Node000044"><a xlink:href="iop_2system_2sbusintr_2src_2irx__imports_8h_source.html" target="_top" xlink:title=" ">
<polygon fill="white" stroke="#666666" points="4642.75,-97 4542,-97 4542,-66.5 4642.75,-66.5 4642.75,-97"/>
<text text-anchor="start" x="4550" y="-83.5" font-family="Helvetica,sans-Serif" font-size="10.00">iop/system/sbusintr</text>
<text text-anchor="middle" x="4592.38" y="-72.25" font-family="Helvetica,sans-Serif" font-size="10.00">/src/irx_imports.h</text>
</a>
</g>
</g>
<!-- Node1&#45;&gt;Node44 -->
<g id="edge43_Node000001_Node000044" class="edge">
<title>Node1&#45;&gt;Node44</title>
<g id="a_edge43_Node000001_Node000044"><a xlink:title=" ">
<path fill="none" stroke="#63b8ff" d="M2625.86,-147.39C2908.17,-147.82 4149.56,-146.81 4532.38,-97 4535.45,-96.6 4538.61,-96.11 4541.77,-95.55"/>
<polygon fill="#63b8ff" stroke="#63b8ff" points="2626.2,-143.89 2616.19,-147.37 2626.18,-150.89 2626.2,-143.89"/>
</a>
</g>
</g>
<!-- Node45 -->
<g id="Node000045" class="node">
<title>Node45</title>
<g id="a_Node000045"><a xlink:href="sbusintr_8c.html" target="_top" xlink:title=" ">
<polygon fill="white" stroke="#666666" points="4761.75,-97 4661,-97 4661,-66.5 4761.75,-66.5 4761.75,-97"/>
<text text-anchor="start" x="4669" y="-83.5" font-family="Helvetica,sans-Serif" font-size="10.00">iop/system/sbusintr</text>
<text text-anchor="middle" x="4711.38" y="-72.25" font-family="Helvetica,sans-Serif" font-size="10.00">/src/sbusintr.c</text>
</a>
</g>
</g>
<!-- Node1&#45;&gt;Node45 -->
<g id="edge44_Node000001_Node000045" class="edge">
<title>Node1&#45;&gt;Node45</title>
<g id="a_edge44_Node000001_Node000045"><a xlink:title=" ">
<path fill="none" stroke="#63b8ff" d="M2625.53,-147.49C2917.38,-148.44 4243.59,-149.75 4651.38,-97 4654.45,-96.6 4657.61,-96.11 4660.77,-95.55"/>
<polygon fill="#63b8ff" stroke="#63b8ff" points="2625.91,-143.99 2615.9,-147.45 2625.89,-150.99 2625.91,-143.99"/>
</a>
</g>
</g>
<!-- Node46 -->
<g id="Node000046" class="node">
<title>Node46</title>
<g id="a_Node000046"><a xlink:href="iop_2system_2siftoo_2src_2irx__imports_8h_source.html" target="_top" xlink:title=" ">
<polygon fill="white" stroke="#666666" points="4886.75,-97 4780,-97 4780,-66.5 4886.75,-66.5 4886.75,-97"/>
<text text-anchor="start" x="4788" y="-83.5" font-family="Helvetica,sans-Serif" font-size="10.00">iop/system/siftoo/src</text>
<text text-anchor="middle" x="4833.38" y="-72.25" font-family="Helvetica,sans-Serif" font-size="10.00">/irx_imports.h</text>
</a>
</g>
</g>
<!-- Node1&#45;&gt;Node46 -->
<g id="edge45_Node000001_Node000046" class="edge">
<title>Node1&#45;&gt;Node46</title>
<g id="a_edge45_Node000001_Node000046"><a xlink:title=" ">
<path fill="none" stroke="#63b8ff" d="M2625.84,-147.49C2928.24,-148.52 4337.59,-150.34 4770.38,-97 4773.38,-96.63 4776.45,-96.18 4779.54,-95.67"/>
<polygon fill="#63b8ff" stroke="#63b8ff" points="2626.26,-143.99 2616.25,-147.46 2626.23,-150.99 2626.26,-143.99"/>
</a>
</g>
</g>
<!-- Node47 -->
<g id="Node000047" class="node">
<title>Node47</title>
<g id="a_Node000047"><a xlink:href="siftoo_8c_source.html" target="_top" xlink:title=" ">
<polygon fill="white" stroke="#666666" points="5011.75,-97 4905,-97 4905,-66.5 5011.75,-66.5 5011.75,-97"/>
<text text-anchor="start" x="4913" y="-83.5" font-family="Helvetica,sans-Serif" font-size="10.00">iop/system/siftoo/src</text>
<text text-anchor="middle" x="4958.38" y="-72.25" font-family="Helvetica,sans-Serif" font-size="10.00">/siftoo.c</text>
</a>
</g>
</g>
<!-- Node1&#45;&gt;Node47 -->
<g id="edge46_Node000001_Node000047" class="edge">
<title>Node1&#45;&gt;Node47</title>
<g id="a_edge46_Node000001_Node000047"><a xlink:title=" ">
<path fill="none" stroke="#63b8ff" d="M2626.09,-146.7C2962.58,-143.39 4664.23,-125.34 4895.38,-97 4898.38,-96.63 4901.45,-96.18 4904.54,-95.67"/>
<polygon fill="#63b8ff" stroke="#63b8ff" points="2626.18,-143.2 2616.21,-146.79 2626.25,-150.2 2626.18,-143.2"/>
</a>
</g>
</g>
<!-- Node48 -->
<g id="Node000048" class="node">
<title>Node48</title>
<g id="a_Node000048"><a xlink:href="iop_2tcpip_2tcpips_2src_2irx__imports_8h_source.html" target="_top" xlink:title=" ">
<polygon fill="white" stroke="#666666" points="5128.62,-97 5030.12,-97 5030.12,-66.5 5128.62,-66.5 5128.62,-97"/>
<text text-anchor="start" x="5038.12" y="-83.5" font-family="Helvetica,sans-Serif" font-size="10.00">iop/tcpip/tcpips/src</text>
<text text-anchor="middle" x="5079.38" y="-72.25" font-family="Helvetica,sans-Serif" font-size="10.00">/irx_imports.h</text>
</a>
</g>
</g>
<!-- Node1&#45;&gt;Node48 -->
<g id="edge47_Node000001_Node000048" class="edge">
<title>Node1&#45;&gt;Node48</title>
<g id="a_edge47_Node000001_Node000048"><a xlink:title=" ">
<path fill="none" stroke="#63b8ff" d="M2626.12,-146.82C2973.29,-144.11 4776.32,-128.59 5020.38,-97 5023.51,-96.59 5026.72,-96.09 5029.95,-95.51"/>
<polygon fill="#63b8ff" stroke="#63b8ff" points="2626.11,-143.32 2616.14,-146.89 2626.16,-150.32 2626.11,-143.32"/>
</a>
</g>
</g>
<!-- Node49 -->
<g id="Node000049" class="node">
<title>Node49</title>
<g id="a_Node000049"><a xlink:href="ps2ips_8c.html" target="_top" xlink:title=" ">
<polygon fill="white" stroke="#666666" points="5245.62,-97 5147.12,-97 5147.12,-66.5 5245.62,-66.5 5245.62,-97"/>
<text text-anchor="start" x="5155.12" y="-83.5" font-family="Helvetica,sans-Serif" font-size="10.00">iop/tcpip/tcpips/src</text>
<text text-anchor="middle" x="5196.38" y="-72.25" font-family="Helvetica,sans-Serif" font-size="10.00">/ps2ips.c</text>
</a>
</g>
</g>
<!-- Node1&#45;&gt;Node49 -->
<g id="edge48_Node000001_Node000049" class="edge">
<title>Node1&#45;&gt;Node49</title>
<g id="a_edge48_Node000001_Node000049"><a xlink:title=" ">
<path fill="none" stroke="#63b8ff" d="M2626.03,-146.87C2982.65,-144.45 4880.99,-130.07 5137.38,-97 5140.51,-96.6 5143.72,-96.09 5146.95,-95.51"/>
<polygon fill="#63b8ff" stroke="#63b8ff" points="2626.21,-143.37 2616.24,-146.94 2626.26,-150.37 2626.21,-143.37"/>
</a>
</g>
</g>
<!-- Node11 -->
<g id="Node000011" class="node">
<title>Node11</title>
<g id="a_Node000011"><a xlink:href="iop_2fs_2fileio_2src_2fileio_8c_source.html" target="_top" xlink:title=" ">
<polygon fill="white" stroke="#666666" points="1077.88,-24.88 968.88,-24.88 968.88,-5.63 1077.88,-5.63 1077.88,-24.88"/>
<text text-anchor="middle" x="1023.38" y="-11.38" font-family="Helvetica,sans-Serif" font-size="10.00">iop/fs/fileio/src/fileio.c</text>
</a>
</g>
</g>
<!-- Node10&#45;&gt;Node11 -->
<g id="edge10_Node000010_Node000011" class="edge">
<title>Node10&#45;&gt;Node11</title>
<g id="a_edge10_Node000010_Node000011"><a xlink:title=" ">
<path fill="none" stroke="#63b8ff" d="M1023.38,-54.84C1023.38,-44.26 1023.38,-32.75 1023.38,-25.07"/>
<polygon fill="#63b8ff" stroke="#63b8ff" points="1019.88,-54.6 1023.38,-64.6 1026.88,-54.6 1019.88,-54.6"/>
</a>
</g>
</g>
<!-- Node17 -->
<g id="Node000017" class="node">
<title>Node17</title>
<g id="a_Node000017"><a xlink:href="mcserv_8c_source.html" target="_top" xlink:title=" ">
<polygon fill="white" stroke="#666666" points="1656.5,-30.5 1536.25,-30.5 1536.25,0 1656.5,0 1656.5,-30.5"/>
<text text-anchor="start" x="1544.25" y="-17" font-family="Helvetica,sans-Serif" font-size="10.00">iop/memorycard/mcserv</text>
<text text-anchor="middle" x="1596.38" y="-5.75" font-family="Helvetica,sans-Serif" font-size="10.00">/src/mcserv.c</text>
</a>
</g>
</g>
<!-- Node16&#45;&gt;Node17 -->
<g id="edge16_Node000016_Node000017" class="edge">
<title>Node16&#45;&gt;Node17</title>
<g id="a_edge16_Node000016_Node000017"><a xlink:title=" ">
<path fill="none" stroke="#63b8ff" d="M1596.38,-54.81C1596.38,-46.64 1596.38,-37.91 1596.38,-30.83"/>
<polygon fill="#63b8ff" stroke="#63b8ff" points="1592.88,-54.6 1596.38,-64.6 1599.88,-54.6 1592.88,-54.6"/>
</a>
</g>
</g>
<!-- Node32 -->
<g id="Node000032" class="node">
<title>Node32</title>
<g id="a_Node000032"><a xlink:href="eeelfloader_8c_source.html" target="_top" xlink:title=" ">
<polygon fill="white" stroke="#666666" points="3286.5,-30.5 3190.25,-30.5 3190.25,0 3286.5,0 3286.5,-30.5"/>
<text text-anchor="start" x="3198.25" y="-17" font-family="Helvetica,sans-Serif" font-size="10.00">iop/system/loadfile</text>
<text text-anchor="middle" x="3238.38" y="-5.75" font-family="Helvetica,sans-Serif" font-size="10.00">/src/eeelfloader.c</text>
</a>
</g>
</g>
<!-- Node31&#45;&gt;Node32 -->
<g id="edge31_Node000031_Node000032" class="edge">
<title>Node31&#45;&gt;Node32</title>
<g id="a_edge31_Node000031_Node000032"><a xlink:title=" ">
<path fill="none" stroke="#63b8ff" d="M3274.94,-57.63C3267.04,-48.69 3258.25,-38.74 3251.26,-30.83"/>
<polygon fill="#63b8ff" stroke="#63b8ff" points="3272.19,-59.8 3281.44,-64.98 3277.44,-55.17 3272.19,-59.8"/>
</a>
</g>
</g>
<!-- Node33 -->
<g id="Node000033" class="node">
<title>Node33</title>
<g id="a_Node000033"><a xlink:href="iop_2system_2loadfile_2src_2loadfile_8c_source.html" target="_top" xlink:title=" ">
<polygon fill="white" stroke="#666666" points="3400.5,-30.5 3304.25,-30.5 3304.25,0 3400.5,0 3400.5,-30.5"/>
<text text-anchor="start" x="3312.25" y="-17" font-family="Helvetica,sans-Serif" font-size="10.00">iop/system/loadfile</text>
<text text-anchor="middle" x="3352.38" y="-5.75" font-family="Helvetica,sans-Serif" font-size="10.00">/src/loadfile.c</text>
</a>
</g>
</g>
<!-- Node31&#45;&gt;Node33 -->
<g id="edge32_Node000031_Node000033" class="edge">
<title>Node31&#45;&gt;Node33</title>
<g id="a_edge32_Node000031_Node000033"><a xlink:title=" ">
<path fill="none" stroke="#63b8ff" d="M3315.81,-57.63C3323.71,-48.69 3332.5,-38.74 3339.49,-30.83"/>
<polygon fill="#63b8ff" stroke="#63b8ff" points="3313.31,-55.17 3309.31,-64.98 3318.56,-59.8 3313.31,-55.17"/>
</a>
</g>
</g>
<!-- Node41 -->
<g id="Node000041" class="node">
<title>Node41</title>
<g id="a_Node000041"><a xlink:href="reboot_8c_source.html" target="_top" xlink:title=" ">
<polygon fill="white" stroke="#666666" points="4262.25,-30.5 4152.5,-30.5 4152.5,0 4262.25,0 4262.25,-30.5"/>
<text text-anchor="start" x="4160.5" y="-17" font-family="Helvetica,sans-Serif" font-size="10.00">iop/system/reboot/src</text>
<text text-anchor="middle" x="4207.38" y="-5.75" font-family="Helvetica,sans-Serif" font-size="10.00">/reboot.c</text>
</a>
</g>
</g>
<!-- Node40&#45;&gt;Node41 -->
<g id="edge40_Node000040_Node000041" class="edge">
<title>Node40&#45;&gt;Node41</title>
<g id="a_edge40_Node000040_Node000041"><a xlink:title=" ">
<path fill="none" stroke="#63b8ff" d="M4207.38,-54.81C4207.38,-46.64 4207.38,-37.91 4207.38,-30.83"/>
<polygon fill="#63b8ff" stroke="#63b8ff" points="4203.88,-54.6 4207.38,-64.6 4210.88,-54.6 4203.88,-54.6"/>
</a>
</g>
</g>
</g>
</svg>
